<?xml version="1.0" standalone="no"?><!DOCTYPE svg PUBLIC "-//W3C//DTD SVG 1.1//EN" "http://www.w3.org/Graphics/SVG/1.1/DTD/svg11.dtd"><svg t="1682693300541" class="icon" viewBox="0 0 1024 1024" version="1.1" xmlns="http://www.w3.org/2000/svg" p-id="2364" xmlns:xlink="http://www.w3.org/1999/xlink" width="200" height="200"><path d="M966.877888 756.147477c-7.494015-6.500013-11.586023-16.220032-10.32402-26.060051 3.992008-31.110061-5.948012-63.662124-29.842058-87.554171-28.318055-28.318055-68.792134-37.032072-104.616204-26.184051-10.33402 3.130006-21.532042 0.670001-29.424058-6.700013-68.034133-63.526124-159.362311-102.4182-259.786507-102.4182-141.816277 0-265.522519 77.528151-331.054647 192.512376-5.08001 8.916017-14.728029 14.134028-24.984049 13.794027a163.75232 163.75232 0 0 0-5.44001-0.092001c-83.858164 0-153.906301 59.130115-170.724334 137.97027-4.014008 18.820037 10.19802 36.594071 29.440058 36.594071h963.709882c19.112037 0 33.466065-17.584034 29.508058-36.28207-8.004016-37.836074-28.284055-71.140139-56.462111-95.580187z" fill="#489A6D" p-id="2365" data-spm-anchor-id="a313x.7781069.0.i8" class="selected"></path><path d="M720.113406 545.359065h-124.762243l-23.372046 342.652669h171.506335z" fill="#C27C59" p-id="2366" data-spm-anchor-id="a313x.7781069.0.i10" class="selected"></path><path d="M720.113406 545.359065h-124.762243l-7.380015 108.194211c21.460042 9.022018 45.018088 14.038027 69.760137 14.038028s48.300094-5.01601 69.760136-14.038028l-7.378015-108.194211z" opacity=".1" p-id="2367"></path><path d="M680.76933 729.477425a15.000029 15.000029 0 0 1-14.97803-14.416028l-2.184004-55.96011a15.000029 15.000029 0 0 1 14.404028-15.57403c8.260016-0.314001 15.25003 6.124012 15.574031 14.404028l2.184004 55.960109a15.000029 15.000029 0 0 1-15.000029 15.586031zM631.591234 845.099651a15.000029 15.000029 0 0 1-15.00203-15.518031l2.064004-59.622116a14.992029 14.992029 0 0 1 15.510031-14.472028 15.000029 15.000029 0 0 1 14.472028 15.51003l-2.064004 59.622116a15.000029 15.000029 0 0 1-14.980029 14.480029z" opacity=".1" p-id="2368"></path><path d="M881.579722 283.628554c-10.33202-4.362009-17.598034-13.678027-19.216038-24.774048-10.13402-69.494136-69.942137-122.86824-142.248278-122.86824-18.000035 0-35.228069 3.308006-51.108099 9.348018a31.666062 31.666062 0 0 1-22.546044 0 143.46628 143.46628 0 0 0-51.1081-9.348018c-72.306141 0-132.114258 53.374104-142.248278 122.86824-1.618003 11.098022-8.884017 20.41204-19.216038 24.774048-51.654101 21.808043-87.914172 72.904142-87.914171 132.496259 0 79.420155 64.382126 143.802281 143.802281 143.802281 8.358016 0 16.544032-0.728001 24.506047-2.110005a30.80006 30.80006 0 0 1 25.36005 7.078014c31.644062 27.444054 72.918142 44.070086 118.092231 44.070086 45.174088 0 86.450169-16.626032 118.09223-44.070086a30.80006 30.80006 0 0 1 25.36005-7.078014 143.39228 143.39228 0 0 0 24.506048 2.110005c79.420155 0 143.802281-64.382126 143.802281-143.802281-0.002-59.592116-36.264071-110.688216-87.916172-132.496259z" fill="#54B88B" p-id="2369" data-spm-anchor-id="a313x.7781069.0.i7" class="selected"></path><path d="M615.829203 355.436694a15.000029 15.000029 0 0 1-15.00003-15.000029v-14.858029a15.000029 15.000029 0 0 1 30.000059 0v14.858029a15.000029 15.000029 0 0 1-15.000029 15.000029zM794.859552 355.436694a15.000029 15.000029 0 0 1-15.000029-15.000029v-14.858029a15.000029 15.000029 0 0 1 30.000059 0v14.858029a15.000029 15.000029 0 0 1-15.00003 15.000029zM705.343378 366.848717a46.29609 46.29609 0 0 1-34.910069-15.898032 15.000029 15.000029 0 0 1 22.618045-19.710038 16.310032 16.310032 0 0 0 12.292024 5.606011 16.314032 16.314032 0 0 0 12.292024-5.606011 15.000029 15.000029 0 0 1 22.618044 19.710038 46.29609 46.29609 0 0 1-34.910068 15.898032z" fill="#414B58" p-id="2370"></path><path d="M542.66906 468.188914c-61.68012-25.50805-60.748119-100.882197-32.134063-153.546299 8.068016-14.850029 11.024022-31.932062 7.656015-48.492095-7.486015-36.802072-3.440007-91.054178 24.440048-120.162235-47.096092 18.582036-82.02816 61.29412-89.536175 112.920221-1.612003 11.078022-8.896017 20.36404-19.208038 24.718048-51.654101 21.808043-87.914172 72.904142-87.914171 132.496259 0 79.420155 64.382126 143.802281 143.802281 143.802281 8.358016 0 16.544032-0.728001 24.506047-2.110005a30.80006 30.80006 0 0 1 25.36005 7.078014c31.644062 27.444054 72.918142 44.070086 118.092231 44.070086a179.584351 179.584351 0 0 0 68.544134-13.542026c-74.490145 4.050008-126.574247-49.874097-145.966286-91.090178-7.680015-16.318032-20.974041-29.250057-37.642073-36.142071z" opacity=".1" p-id="2371"></path><path d="M399.854781 592.043156h-107.764211l-20.188039 295.968578h148.140289z" fill="#C27C59" p-id="2372" data-spm-anchor-id="a313x.7781069.0.i9" class="selected"></path><path d="M399.854781 592.043156h-107.764211l-6.374012 93.454183c18.536036 7.792015 38.884076 12.124024 60.256118 12.124024s41.720081-4.332008 60.256117-12.124024l-6.374012-93.454183z" opacity=".1" p-id="2373"></path><path d="M320.384626 781.391526a15.000029 15.000029 0 0 1-14.99603-15.738031l2.000004-40.570079c0.408001-8.276016 7.470015-14.646029 15.720031-14.244028a15.000029 15.000029 0 0 1 14.244028 15.720031l-2.000004 40.570079a14.996029 14.996029 0 0 1-14.968029 14.262028zM374.226731 860.14768a15.000029 15.000029 0 0 1-14.954029-14.044027l-2.668006-41.764082a15.000029 15.000029 0 1 1 29.940059-1.912004l2.668005 41.764082a15.000029 15.000029 0 0 1-14.986029 15.956031z" opacity=".1" p-id="2374"></path><path d="M539.321053 365.970715c-8.924017-3.768007-15.20003-11.814023-16.598032-21.400042-8.754017-60.026117-60.414118-106.128207-122.86824-106.128207a123.936242 123.936242 0 0 0-44.144086 8.074015 27.342053 27.342053 0 0 1-19.474038 0 123.944242 123.944242 0 0 0-44.144087-8.074015c-62.454122 0-114.114223 46.10209-122.868239 106.128207-1.398003 9.586019-7.674015 17.632034-16.598033 21.400042-44.616087 18.836037-75.938148 62.972123-75.938148 114.446223 0 68.600134 55.610109 124.210243 124.210242 124.210243 7.220014 0 14.290028-0.630001 21.168042-1.822004a26.600052 26.600052 0 0 1 21.904043 6.114012c27.332053 23.704046 62.984123 38.066074 102.004199 38.066075s74.672146-14.362028 102.004199-38.066075a26.600052 26.600052 0 0 1 21.904043-6.114012c6.878013 1.192002 13.948027 1.822004 21.168041 1.822004 68.600134 0 124.210243-55.610109 124.210243-124.210243-0.002-51.476101-31.324061-95.610187-75.940149-114.446223z" fill="#B5E489" p-id="2375" data-spm-anchor-id="a313x.7781069.0.i6" class="selected"></path><path d="M256.456501 428.604837a15.000029 15.000029 0 0 1-15.000029-15.000029v-14.860029a15.000029 15.000029 0 0 1 30.000058 0v14.860029a15.000029 15.000029 0 0 1-15.000029 15.000029zM435.488851 428.604837a15.000029 15.000029 0 0 1-15.00003-15.000029v-14.860029a15.000029 15.000029 0 0 1 30.000059 0v14.860029a15.000029 15.000029 0 0 1-15.000029 15.000029zM345.972676 440.014859a46.30009 46.30009 0 0 1-34.908068-15.896031 15.000029 15.000029 0 0 1 1.452002-21.162041 15.000029 15.000029 0 0 1 21.164042 1.452003 16.306032 16.306032 0 0 0 12.292024 5.606011 16.300032 16.300032 0 0 0 12.292024-5.606011 15.000029 15.000029 0 0 1 21.164041-1.452003 15.000029 15.000029 0 0 1 1.452003 21.162041 46.30009 46.30009 0 0 1-34.908068 15.896031z" fill="#414B58" p-id="2376"></path><path d="M246.584482 525.385026c-53.278104-22.034043-52.472102-87.13817-27.754055-132.626259 6.968014-12.826025 9.522019-27.582054 6.612013-41.886082-6.466013-31.788062-2.970006-78.648154 21.110042-103.790202-40.680079 16.050031-70.852138 52.944103-77.338152 97.53619-1.392003 9.568019-7.684015 17.590034-16.592032 21.350042-44.616087 18.836037-75.938148 62.972123-75.938148 114.446223 0 68.600134 55.610109 124.210243 124.210242 124.210243 7.220014 0 14.290028-0.630001 21.168042-1.822004a26.600052 26.600052 0 0 1 21.904042 6.114012c27.332053 23.704046 62.984123 38.066074 102.0042 38.066075a155.098303 155.098303 0 0 0 59.206115-11.698023c-64.340126 3.498007-109.330214-43.078084-126.080246-78.680154-6.630013-14.096028-18.114035-25.266049-32.512063-31.220061z" opacity=".1" p-id="2377"></path><path d="M861.459683 817.737597a15.000029 15.000029 0 0 1-10.606021-25.60805l16.368032-16.368032a15.000029 15.000029 0 0 1 21.212041 21.214042l-16.368032 16.368032a14.944029 14.944029 0 0 1-10.60602 4.394008zM485.720949 763.211491a15.000029 15.000029 0 0 1-10.606021-25.60805l16.368032-16.368032a15.000029 15.000029 0 0 1 21.212041 0 15.000029 15.000029 0 0 1 0 21.212041l-16.368032 16.368032a14.950029 14.950029 0 0 1-10.60602 4.396009zM809.04358 707.037381a14.956029 14.956029 0 0 1-10.606021-4.394009l-16.368032-16.368032a15.000029 15.000029 0 0 1 21.214042-21.214041l16.368032 16.368032a15.000029 15.000029 0 0 1 0 21.212041 14.958029 14.958029 0 0 1-10.608021 4.396009zM190.040371 841.395643a14.948029 14.948029 0 0 1-10.606021-4.394008l-16.368032-16.368032a15.000029 15.000029 0 0 1 21.212042-21.214042l16.368032 16.368032a15.000029 15.000029 0 0 1-10.606021 25.60805z" opacity=".1" p-id="2378"></path></svg>