<?xml version="1.0" standalone="no"?><!DOCTYPE svg PUBLIC "-//W3C//DTD SVG 1.1//EN" "http://www.w3.org/Graphics/SVG/1.1/DTD/svg11.dtd"><svg t="1681476586280" class="icon" viewBox="0 0 1024 1024" version="1.1" xmlns="http://www.w3.org/2000/svg" p-id="6824" xmlns:xlink="http://www.w3.org/1999/xlink" width="200" height="200"><path d="M311.421388 648.651755l3.218285-2.716735 52.453878-44.073796 14.795755 17.596082-45.369469 38.117878-2.612245 2.194285a45.97551 45.97551 0 0 0-16.342204 33.060572 23925182.317714 23925182.317714 0 0 0-8.024817 173.076898 16.091429 16.091429 0 0 1-32.057469 1.086694l-20.438204-179.220898c2.319673-2.570449 5.809633-4.012408 10.44898-4.388572a19.24702 19.24702 0 0 1 12.434285 3.072l10.616164 92.703347 4.137795-89.129796 0.376164-8.317387a45.97551 45.97551 0 0 1 16.363102-33.060572zM708.733388 648.651755l-3.218286-2.716735-52.453878-44.073796-14.795755 17.596082 45.348572 38.117878 2.612245 2.194285a45.97551 45.97551 0 0 1 16.363102 33.060572l0.564245 12.225306 7.460571 160.851592a16.091429 16.091429 0 0 0 32.057469 1.086694l20.438205-179.220898c-2.340571-2.570449-5.830531-4.012408-10.44898-4.388572a19.24702 19.24702 0 0 0-12.434286 3.072l-10.637061 92.703347-4.116898-89.129796-0.397061-8.317387a45.97551 45.97551 0 0 0-16.342204-33.060572z" fill="#0006F0" p-id="6825"></path><path d="M280.032653 689.737143a17.031837 17.031837 0 0 0-11.389388-4.284082 18.494694 18.494694 0 0 0-11.598367 4.221388l0.522449-175.960816 0.062694-14.294204a45.97551 45.97551 0 0 1 12.685061-31.576817l8.818939-9.257796L317.857959 417.959184l16.634776 15.861551-36.884898 38.70302-7.502368 7.857633a34.481633 34.481633 0 0 0-9.508571 23.698285l-0.062694 17.345307-0.501551 168.312163zM739.996735 689.737143a17.031837 17.031837 0 0 1 11.389387-4.284082c4.179592 0.020898 8.045714 1.421061 11.598368 4.221388l-0.543347-175.960816-0.041796-14.294204a45.97551 45.97551 0 0 0-12.685061-31.576817l-8.818939-9.257796L702.171429 417.959184l-16.634776 15.861551 36.884898 38.70302 7.481469 7.857633c6.102204 6.394776 9.508571 14.858449 9.52947 23.698285l0.041796 17.345307 0.522449 168.312163z" fill="#1B57FF" p-id="6826"></path><path d="M873.743673 263.188898c5.287184 4.534857 5.287184 10.407184 0 14.942041l-140.873142 157.089959-33.269551 83.236571a22.987755 22.987755 0 0 1-15.924245 13.792653c2.215184 2.946612 4.931918 5.809633 8.108408 8.547266l181.95853 85.953306-3.510857 17.031837c-2.528653 12.246204-14.503184 20.124735-26.749387 17.596081l-1.650939-0.417959-1.609143-0.522449c-64.825469-7.606857-113.475918-14.628571-145.867755-21.106939-17.61698-3.531755-33.227755-2.089796-45.703837 9.257796-20.124735 18.22302-33.332245 40.96-39.643428 68.210939h-198.196245c-5.726041-27.418122-18.53649-50.238694-38.410449-68.461714-12.476082-11.431184-28.504816-12.705959-46.18449-9.174204-32.600816 6.520163-81.460245 13.604571-146.620082 21.274122-3.406367 1.253878-7.585959 1.671837-12.538775 1.253878a22.987755 22.987755 0 0 1-20.981551-22.904164v-12.037224l181.95853-85.953306c3.17649-2.716735 5.893224-5.600653 8.129306-8.526368a23.050449 23.050449 0 0 1-15.945142-13.813551l-33.311347-83.278367-140.831347-157.048163c-7.314286-6.269388-4.221388-14.733061 6.95902-18.849959a40.625633 40.625633 0 0 1 26.540408 0l277.211429 149.315918c32.245551 11.911837 73.978776 11.911837 106.245224 0l277.190531-149.315918c11.180408-4.137796 26.185143-2.382367 33.520326 3.907918z" fill="#633AFF" p-id="6827"></path><path d="M417.959184 693.812245a22.904163 22.904163 0 0 0 22.904163 22.987755h138.553469a22.465306 22.465306 0 0 0 22.444408-22.987755l17.972245 71.888979a22.987755 22.987755 0 0 1-15.088326 27.397225c-31.618612 10.44898-63.216327 15.652571-94.834939 15.652571-31.618612 0-63.216327-5.22449-94.834939-15.652571a22.987755 22.987755 0 0 1-15.088326-27.397225L417.959184 693.812245z" fill="#633AFF" p-id="6828"></path><path d="M456.787592 543.263347L179.597061 645.600653c-11.180408 4.137796-26.185143 2.382367-33.520326-3.907918-5.287184-4.534857-5.287184-10.407184 0-14.942041l181.95853-155.919674c21.169633-18.139429 21.169633-41.628735 0-59.768163L146.076735 255.143184c-7.314286-6.269388-4.221388-14.733061 6.95902-18.84996a40.625633 40.625633 0 0 1 26.540408 0l277.211429 102.337307c32.245551 11.911837 73.978776 11.911837 106.245224 0l277.190531-102.337307c11.180408-4.137796 26.185143-2.382367 33.520326 3.907919 5.287184 4.534857 5.287184 10.407184 0 14.942041l-181.95853 155.919673c-21.169633 18.139429-21.169633 41.628735 0 59.768163l181.95853 155.919674c7.314286 6.269388 4.221388 14.733061-6.95902 18.849959a40.625633 40.625633 0 0 1-26.540408 0l-277.211429-102.337306c-32.245551-11.911837-73.978776-11.911837-106.245224 0z" fill="#A8C8FF" p-id="6829"></path><path d="M873.743673 240.201143c5.287184 4.534857 5.287184 10.407184 0 14.942041l-181.95853 155.919673c-21.169633 18.139429-21.169633 41.628735 0 59.768163l181.95853 155.919674c7.314286 6.269388 4.221388 14.733061-6.95902 18.849959a40.625633 40.625633 0 0 1-26.540408 0l-277.211429-102.337306c-16.133224-5.955918-34.627918-8.944327-53.122612-8.944327v-186.744163c18.494694 0 36.989388-2.988408 53.122612-8.944326l277.190531-102.337307c11.180408-4.137796 26.185143-2.382367 33.520326 3.907919z" fill="#B7CFFF" p-id="6830"></path><path d="M873.743673 240.201143c5.287184 4.534857 5.287184 10.407184 0 14.942041l-181.95853 155.919673c-18.285714 15.673469-20.772571 35.317551-7.460572 52.098612l1.295674 0.773225c-58.514286-36.780408-117.070367-55.170612-175.710041-55.170612-58.556082 0-116.882286 18.348408-174.936816 55.024326 13.897143-16.885551 11.577469-36.843102-6.938123-52.725551L146.076735 255.143184c-7.314286-6.269388-4.221388-14.733061 6.95902-18.84996a40.625633 40.625633 0 0 1 26.540408 0l277.211429 102.337307c32.245551 11.911837 73.978776 11.911837 106.245224 0l277.190531-102.337307c11.180408-4.137796 26.185143-2.382367 33.520326 3.907919z" fill="#D0E2FF" p-id="6831"></path><path d="M179.597061 236.293224l277.190531 102.337307c16.133224 5.955918 34.627918 8.944327 53.122612 8.944326v61.189225c-58.556082 0-116.882286 18.348408-174.936816 55.024326 13.897143-16.885551 11.577469-36.843102-6.938123-52.725551L146.076735 255.143184c-7.314286-6.269388-4.221388-14.733061 6.95902-18.84996a40.625633 40.625633 0 0 1 26.540408 0z" fill="#BED8FF" p-id="6832"></path><path d="M851.529143 234.098939l-304.483265 133.161796a91.95102 91.95102 0 0 1-74.104164-0.20898l-297.921306-132.075102c1.588245 0.334367 3.134694 0.773224 4.576653 1.316571l277.190531 102.337307c32.245551 11.911837 73.978776 11.911837 106.245224 0l277.190531-102.337307c3.510857-1.295673 7.397878-2.006204 11.305796-2.194285z" fill="#A9B8FF" p-id="6833"></path><path d="M571.621878 494.508408l300.157387 148.647184a25.39102 25.39102 0 0 1-4.994612 2.445061 40.625633 40.625633 0 0 1-26.540408 0 1909.509224 1909.509224 0 0 0-277.211429-79.349551c-48.817633-10.114612-57.427592-10.114612-106.245224 0a1909.509224 1909.509224 0 0 0-277.190531 79.349551c-9.195102 3.406367-21.002449 2.821224-28.985469-1.003102L448.470204 494.863673a137.926531 137.926531 0 0 1 123.151674-0.355265z" fill="#817EFF" p-id="6834"></path><path d="M873.743673 240.201143c5.287184 4.534857 5.287184 10.407184 0 14.942041l-181.95853 155.919673c-21.169633 18.139429-21.169633 41.628735 0 59.768163l181.95853 155.919674c3.469061 2.96751 4.597551 6.415673 3.657143 9.654857l-6.478367 2.86302-233.639184-173.453061-4.200489-5.308081a41.858612 41.858612 0 0 1 9.299591-60.604082v-0.020898l0.898613-0.626939c16.404898-11.243102 92.285388-65.995755 227.641469-164.195265l-2.570449 1.859918c2.068898 0.898612 3.88702 1.985306 5.391673 3.28098zM147.184327 239.323429l-5.893225-4.263184c135.356082 98.220408 211.236571 152.952163 227.641469 164.195265l0.898613 0.626939a41.858612 41.858612 0 0 1 9.299592 60.604082l-4.221388 5.349877-231.862857 172.115592a9.404082 9.404082 0 0 1-0.20898-0.376163l38.452245-40.980898 146.745469-125.763919c21.169633-18.139429 21.169633-41.628735 0-59.768163L146.076735 255.143184c-5.830531-4.994612-5.057306-11.347592 1.107592-15.819755z" fill="#8792FF" p-id="6835"></path><path d="M601.861224 670.82449m22.987756 0l0 0q22.987755 0 22.987755 22.987755l0 91.95102q0 22.987755-22.987755 22.987755l0 0q-22.987755 0-22.987756-22.987755l0-91.95102q0-22.987755 22.987756-22.987755Z" fill="#8C8FFF" p-id="6836"></path><path d="M371.983673 670.82449m22.987756 0l0 0q22.987755 0 22.987755 22.987755l0 91.95102q0 22.987755-22.987755 22.987755l0 0q-22.987755 0-22.987756-22.987755l0-91.95102q0-22.987755 22.987756-22.987755Z" fill="#8C8FFF" p-id="6837"></path><path d="M509.910204 797.257143c-61.502694 0-57.469388-25.725388-57.469388-57.469388a57.469388 57.469388 0 1 1 114.938776 0c0 31.744 4.033306 57.469388-57.469388 57.469388z" fill="#210492" p-id="6838"></path><path d="M509.910204 785.763265m-45.97551 0a45.97551 45.97551 0 1 0 91.95102 0 45.97551 45.97551 0 1 0-91.95102 0Z" fill="#8F74FF" p-id="6839"></path><path d="M540.937951 754.802027m8.127399 8.127398l0 0q8.127399 8.127399 0 16.254798l-48.764392 48.764392q-8.127399 8.127399-16.254798 0l0 0q-8.127399-8.127399 0-16.254797l48.764393-48.764393q8.127399-8.127399 16.254797 0Z" fill="#FFFFFF" p-id="6840"></path><path d="M509.910204 843.232653a57.469388 57.469388 0 1 1 0-114.938775 57.469388 57.469388 0 0 1 0 114.938775z m0-22.987755a34.481633 34.481633 0 1 0 0-68.963265 34.481633 34.481633 0 0 0 0 68.963265z" fill="#C1BDFF" p-id="6841"></path><path d="M854.726531 211.069388c12.705959 0 23.008653 10.281796 23.050449 22.987755l0.041796 13.792653-29.884082 13.374694A11.493878 11.493878 0 0 1 831.738776 250.77551V234.057143a22.987755 22.987755 0 0 1 22.987755-22.987755zM165.490939 211.069388c-12.705959 0-23.029551 10.281796-23.071347 22.987755l-0.020898 13.792653 29.570612 13.374694a11.493878 11.493878 0 0 0 16.237714-10.407184l0.10449-16.760163a22.841469 22.841469 0 0 0-22.820571-22.987755z" fill="#586DF9" p-id="6842"></path><path d="M164.801306 593.188571c12.705959 0 23.029551 10.281796 23.071347 22.987756l0.020898 13.792653-29.654204 13.374693a11.493878 11.493878 0 0 1-16.216816-10.428081l-0.083592-16.739265a22.883265 22.883265 0 0 1 22.862367-22.987756zM854.663837 593.188571c-12.705959 0-23.029551 10.281796-23.050449 22.987756l-0.041796 13.792653 29.925877 13.374693a11.493878 11.493878 0 0 0 16.195919-10.490775v-16.676571c-0.041796-12.705959-10.323592-22.987755-23.029551-22.987756z" fill="#3355FF" p-id="6843"></path><path d="M762.77551 142.106122l82.818612 73.707102 10.929633 5.454368-5.01551 34.690612 117.467428 47.062204 23.677388-8.442775-93.560163-77.991184-32.329143-5.099102-9.968326-6.896327-0.376164-18.034938L787.853061 146.599184zM257.044898 142.106122l-82.818612 73.707102-10.929633 5.454368 5.01551 34.690612L50.823837 303.020408 27.167347 294.577633l93.560163-77.991184 32.329143-5.099102 9.968327-6.896327 0.376163-18.034938L231.967347 146.599184z" fill="#B9C4FF" p-id="6844"></path><path d="M854.83102 222.730449a11.493878 11.493878 0 1 0 0-22.987755 11.493878 11.493878 0 0 0 0 22.987755zM165.78351 223.399184a11.493878 11.493878 0 1 0 0-22.987755 11.493878 11.493878 0 0 0 0 22.987755z" fill="#5E6AFF" p-id="6845"></path><path d="M946.677551 532.897959l-82.818612 68.858776-10.929633 1.922612 1.044898 36.153469-113.517714 53.979429-23.677388-8.275592 93.581061-86.538449 32.329143-5.099102 9.968327-6.896326 0.376163-18.034939L921.6 538.958367zM73.142857 532.897959l82.818612 68.858776 10.929633 1.922612-1.630041 33.645714 114.061061 56.487184 23.677388-8.275592-93.539265-86.538449-32.329143-5.099102-9.968326-6.896326-0.376164-18.034939L98.220408 538.958367z" fill="#C1CCFF" p-id="6846"></path><path d="M854.83102 605.142204a11.493878 11.493878 0 1 0 0-22.987755 11.493878 11.493878 0 0 0 0 22.987755zM165.156571 604.849633a11.493878 11.493878 0 1 0 0-22.987755 11.493878 11.493878 0 0 0 0 22.987755z" fill="#4B74FF" p-id="6847"></path></svg>