<?xml version="1.0" standalone="no"?><!DOCTYPE svg PUBLIC "-//W3C//DTD SVG 1.1//EN" "http://www.w3.org/Graphics/SVG/1.1/DTD/svg11.dtd"><svg t="1681566505145" class="icon" viewBox="0 0 1024 1024" version="1.1" xmlns="http://www.w3.org/2000/svg" p-id="2763" xmlns:xlink="http://www.w3.org/1999/xlink" width="200" height="200"><path d="M512 728.576L378.88 752.64s-85.504 37.376-109.568 74.752-61.44 132.608-61.44 132.608H512v-231.424z" fill="#F15A24" p-id="2764"></path><path d="M512.512 728.576l133.12 23.552s85.504 37.376 109.568 74.752 61.44 132.608 61.44 132.608h-304.128v-230.912z" fill="#F7931E" p-id="2765"></path><path d="M595.456 772.608s-19.968 34.816-84.992 34.816-82.432-35.84-82.432-35.84v-192.512h166.912l0.512 193.536z" fill="#FFDDB8" p-id="2766"></path><path d="M595.456 650.752l-166.912 97.792v-168.96h166.912v71.168z" fill="#EBCCAA" p-id="2767"></path><path d="M512.512 216.064h-1.536C407.552 215.552 317.44 315.392 317.44 438.272S440.32 660.48 510.464 660.48h1.536l0.512-444.416z" fill="#F5D4B1" p-id="2768"></path><path d="M512.512 216.064h1.536c102.912 0 193.024 99.84 193.024 222.208 0 122.88-122.88 222.208-193.024 222.208h-1.536V216.064z" fill="#FFDDB8" p-id="2769"></path><path d="M321.024 359.424c-3.584-57.344 40.96-100.352 64-151.552 23.04-50.688 69.12-10.24 121.856-10.24s109.056-27.136 132.096 3.584c13.824 17.92 72.704 74.752 71.168 158.208-1.024 58.88 3.072 83.968-6.144 100.864-3.072 5.632-10.752-54.784-40.96-117.76-14.336-29.696-24.576-53.248-58.368-82.944-16.384-10.24-32.256 6.144-53.248 10.24-35.328 6.656-66.56 6.656-93.184 6.656-31.232 0-75.264 40.448-90.624 79.36-26.624 68.096-32.256 117.76-32.256 117.76s-11.264-56.32-14.336-114.176z" fill="#634335" p-id="2770"></path><path d="M335.872 494.08c15.36-4.608 19.968-33.792 4.608-62.464-11.776-37.376-24.576-67.072-43.52-60.928-18.944 6.144-24.576 41.472-12.8 78.848 0 0 36.352 49.664 51.712 44.544z" fill="#F5D4B1" p-id="2771"></path><path d="M688.64 475.648c12.8 4.096 29.184-12.288 36.864-36.864 7.68-25.088 4.096-48.128-9.216-51.712-12.288-4.096-29.184 12.8-36.864 37.376-7.168 24.064-3.584 47.104 9.216 51.2z" fill="#FFDDB8" p-id="2772"></path><path d="M289.28 840.192H460.8v31.744H289.28zM561.152 840.192h171.52v31.744h-171.52zM290.816 891.904h171.52v31.744H290.816zM562.688 891.904h171.52v31.744h-171.52z" fill="#FCEE21" p-id="2773"></path><path d="M512 693.248h97.792v114.176H512z" fill="#F7931E" p-id="2774"></path><path d="M413.696 693.248h97.792v114.176H413.696z" fill="#F15A24" p-id="2775"></path><path d="M509.952 660.48c-111.616 0-180.736-99.84-180.736-260.608 0-129.024 20.48-276.48 180.736-276.48 68.608 0 118.784 27.648 149.504 81.92 24.576 43.52 36.352 104.96 36.352 186.368 0 74.752-15.872 139.264-45.568 187.392-33.792 53.248-81.92 81.408-140.288 81.408z m0-507.392c-104.96 0-160.256 73.728-160.256 246.784 0 144.384 66.048 260.608 160.256 260.608 71.68 0 165.888-92.16 165.888-268.8 0-162.816-59.904-238.592-165.888-238.592z" p-id="2776"></path><path d="M516.096 416.256c80.896 0 154.112-18.432 209.408-49.152-1.024-137.728-49.664-249.344-209.408-249.344-166.4 0-208.896 111.616-209.92 249.344 55.808 30.208 129.024 49.152 209.92 49.152z" fill="#F2F2F2" p-id="2777"></path><path d="M329.728 303.104h145.92v22.016H329.728zM550.4 303.104H696.32v22.016h-145.92zM331.264 338.944h145.92v22.016H331.264zM551.936 338.944h145.92v22.016h-145.92z" fill="#F15A24" p-id="2778"></path><path d="M552.448 317.44l4.096-14.848-3.584-5.632c1.024-17.92-14.848-27.648-14.848-27.648-4.096-9.728-22.016-17.92-25.6-19.456v-0.512l-0.512 0.512c-0.512 0-0.512-0.512-0.512-0.512v0.512c-4.096 2.048-22.016 9.728-25.6 19.456 0 0-15.872 9.728-14.848 27.648l-5.12 5.632 4.096 14.848-3.072 4.096 7.168 9.216-3.584 5.632s11.776 9.728 25.6 9.216l14.336 0.512 1.536-0.512 1.536 0.512 14.336-0.512c13.824 0.512 25.6-9.216 25.6-9.216l-3.584-5.632 7.168-9.216-4.608-4.096z m-41.472 20.48c-29.184-7.68-27.648-51.2-27.648-51.2 4.608-1.536 10.24-11.264 10.24-11.264 5.632 0 14.336-8.192 16.896-11.776l1.536 0.512c3.072 3.072 11.776 11.776 16.896 11.776 0 0 5.632 9.728 10.24 11.264 0-0.512 2.048 43.008-28.16 50.688z" fill="#E4C32A" p-id="2779"></path><path d="M543.232 294.912l-19.968-4.096-9.728-17.92-9.728 17.92-19.968 4.096 14.336 14.848-2.56 20.48 18.432-8.704 18.432 8.704-2.56-20.48c-0.512 0 13.312-14.848 13.312-14.848z" fill="#FF0000" p-id="2780"></path><path d="M516.096 972.288H202.24l2.56-7.168c1.536-4.096 37.888-96.256 61.952-133.632 24.576-38.4 108.032-75.264 111.616-76.8l1.024-0.512 30.72-5.632v-53.76H424.96v-47.104c-25.088-15.872-45.568-38.912-61.44-68.096-18.944-24.576-32.256-50.688-40.448-77.824-17.92-11.264-39.936-41.472-40.96-42.496H281.6v-1.024c-12.8-40.96-5.632-78.336 15.872-85.504 2.048-0.512 4.096-1.024 6.144-1.024 0.512-77.824 14.848-136.192 43.52-177.152 34.816-49.664 92.16-75.264 171.008-75.264 141.312 0 213.504 85.504 214.528 254.464v3.072l-2.56 1.536c-4.608 2.56-9.216 4.608-12.8 6.656v4.096c1.024 0 2.048 0.512 2.56 0.512 4.608 1.536 9.216 4.608 11.776 10.24 6.144 11.264 6.144 29.184 0.512 48.128-4.608 15.36-12.8 27.648-22.016 34.816-9.728 51.712-37.888 91.136-60.416 115.712-13.824 19.456-29.696 35.84-47.616 48.128v14.848h-0.512v34.304h14.336v53.248l32.768 6.144c3.584 1.536 87.04 38.4 111.616 76.8 24.064 37.376 60.416 129.536 61.952 133.632l2.56 7.168h-309.76l1.024-0.512z m-298.496-10.24H512l0.512-0.512h298.496c-9.216-22.528-38.4-94.208-58.368-124.928-22.016-34.304-99.328-69.12-107.008-72.704l-39.424-7.168v-51.712h-14.336v-50.176h0.512V640l2.56-1.536c17.92-11.776 33.792-27.136 47.616-47.104l0.512-0.512c21.504-23.552 49.152-62.464 58.368-112.64l0.512-2.048 1.536-1.024c8.192-5.632 15.36-16.896 19.456-30.72 4.608-15.872 5.12-31.744 0.512-39.936-1.536-3.072-3.584-4.608-6.144-5.12-1.536-0.512-2.56-0.512-4.096 0l-6.144 1.024V378.88l3.072-1.536c3.584-1.536 8.192-4.096 12.8-6.144-2.048-160.256-70.656-241.152-204.288-241.152-137.728 0-202.752 76.8-204.288 241.152 3.584 2.048 8.192 4.096 12.8 6.656l2.56 1.024 1.024 14.848L327.68 409.6l-7.168-12.288c-10.24-17.408-17.408-14.848-19.968-14.336-15.872 5.12-19.968 37.888-9.728 71.68 3.584 4.608 24.064 31.744 38.912 39.936l2.048 1.024 0.512 2.048c7.68 26.624 20.992 52.736 39.424 76.8l0.512 0.512c15.872 29.184 35.84 51.712 60.416 66.048l2.56 1.536v62.976h-14.336V757.76l-38.4 6.656c-7.168 3.072-84.992 38.4-107.008 72.704-19.456 31.232-49.152 102.4-57.856 124.928z" p-id="2781"></path></svg>