<?xml version="1.0" standalone="no"?><!DOCTYPE svg PUBLIC "-//W3C//DTD SVG 1.1//EN" "http://www.w3.org/Graphics/SVG/1.1/DTD/svg11.dtd"><svg t="1681573683229" class="icon" viewBox="0 0 1024 1024" version="1.1" xmlns="http://www.w3.org/2000/svg" p-id="1080" xmlns:xlink="http://www.w3.org/1999/xlink" width="200" height="200"><path d="M329.016911 451.387077C353.947372 416.137846 392.662449 393.846154 442.168911 393.846154H925.536295a39.384615 39.384615 0 0 1 7.68 77.981538c-1.024 0.630154-5.632 4.056615-10.948923 18.392616-6.734769 18.313846-11.027692 46.001231-11.027692 80.856615 0 68.923077 20.125538 95.350154 34.658462 104.132923A39.384615 39.384615 0 0 1 925.536295 748.307692H442.168911c-49.545846 0-88.221538-22.291692-113.152-57.540923C305.189218 657.014154 295.382449 613.809231 295.382449 571.076923c0-42.732308 9.806769-85.976615 33.634462-119.689846z m64.315077 45.489231C381.674142 513.417846 374.15168 539.096615 374.15168 571.076923c0 32.019692 7.483077 57.698462 19.180308 74.200615 10.594462 14.966154 25.6 24.260923 48.836923 24.260924h405.661538c-10.318769-27.844923-15.36-61.046154-15.36-98.461539 0-35.761231 3.780923-69.947077 12.642462-98.461538H442.208295c-23.236923 0-38.281846 9.294769-48.836923 24.260923z" fill="#4180FF" p-id="1081"></path><path d="M329.016911 727.04C353.947372 691.830154 392.662449 669.538462 442.168911 669.538462H925.536295a39.384615 39.384615 0 0 1 7.640616 78.020923c-1.024 0.590769-5.592615 4.017231-10.909539 18.313846-6.734769 18.313846-11.027692 46.040615-11.027692 80.896 0 68.923077 20.125538 95.350154 34.658462 104.132923A39.384615 39.384615 0 0 1 925.536295 1024H442.168911c-49.506462 0-88.221538-22.252308-113.152-57.501538C305.189218 932.706462 295.382449 889.462154 295.382449 846.769231s9.806769-85.976615 33.634462-119.729231z m604.356923 20.401231l-0.078769 0.039384h0.078769z m-540.041846 25.088C381.674142 789.070769 374.15168 814.749538 374.15168 846.769231s7.483077 57.698462 19.180308 74.24c10.594462 14.966154 25.6 24.221538 48.836923 24.221538h405.661538c-10.318769-27.844923-15.36-61.046154-15.36-98.461538 0-35.761231 3.780923-69.947077 12.603077-98.461539H442.208295c-23.236923 0-38.242462 9.255385-48.836923 24.221539z" fill="#4180FF" p-id="1082"></path><path d="M59.074757 39.384615a39.384615 39.384615 0 0 1 39.384615-39.384615h669.538462a39.384615 39.384615 0 0 1 39.384615 39.384615v260.726154a39.384615 39.384615 0 1 1-78.769231 0V78.769231H137.843988v866.461538h61.046154a39.384615 39.384615 0 1 1 0 78.769231H98.459372a39.384615 39.384615 0 0 1-39.384615-39.384615V39.384615z" fill="#4E4E4E" p-id="1083"></path></svg>