<?xml version="1.0" standalone="no"?><!DOCTYPE svg PUBLIC "-//W3C//DTD SVG 1.1//EN" "http://www.w3.org/Graphics/SVG/1.1/DTD/svg11.dtd"><svg t="1681573738453" class="icon" viewBox="0 0 1024 1024" version="1.1" xmlns="http://www.w3.org/2000/svg" p-id="7982" xmlns:xlink="http://www.w3.org/1999/xlink" width="200" height="200"><path d="M32 32h960v960H32z" fill-opacity="0" p-id="7983"></path><path d="M306.28571469 717.71428531c27.42857156-13.71428531 48-58.28571469 65.14285687-65.14285687 10.28571469-3.42857156 51.42857156-24 27.42857157-85.71428531C344 512 306.28571469 460.57142844 306.28571469 340.57142844h411.42857062c0 116.57142844-37.71428531 171.42857156-92.57142842 226.28571469-24 68.57142844 13.71428531 85.71428531 20.57142842 85.71428531 24 6.85714313 82.28571469 54.85714313 106.28571469 65.14285687 3.42857156 0-133.71428531 37.71428531-240 34.28571469-68.57142844 0-137.14285687-13.71428531-205.71428531-34.28571469z" fill="#FFE58F" p-id="7984"></path><path d="M512 38.85714313C446.85714313 38.85714313 309.71428531 86.85714313 292.57142844 203.42857156h442.28571469C714.28571469 93.71428531 577.14285687 38.85714313 512 38.85714313zM738.28571469 237.71428531s-3.42857156 0 0 0H289.14285687h-3.42857156c-10.28571469 10.28571469-37.71428531 17.14285687-48 68.57142938h548.57142938c-17.14285687-51.42857156-41.14285687-58.28571469-48-68.57142938z" fill="#FAAD14" p-id="7985"></path><path d="M734.85714313 237.71428531s3.42857156 0 0 0v-10.28571375c0-6.85714313 0-17.14285687-3.42857157-24H292.57142844c0 6.85714313-3.42857156 17.14285687-3.42857157 24 0 3.42857156-3.42857156 6.85714313-3.42857156 10.28571375h449.14285782z" fill="#D46B08" p-id="7986"></path><path d="M882.28571469 844.57142844l-17.14285782-34.28571375c-24-51.42857156-65.14285687-85.71428531-113.14285687-109.71428625-20.57142844-10.28571469-44.57142844-17.14285687-68.57142844-20.57142844-20.57142844-3.42857156-37.71428531-3.42857156-58.28571469 0-37.71428531 3.42857156-72 6.85714313-106.28571374 6.85714313-37.71428531 0-75.42857156-3.42857156-116.57142844-6.85714313-20.57142844-3.42857156-41.14285687 0-58.28571469 0-24 3.42857156-48 10.28571469-68.57142844 20.57142844-48 24-89.14285687 58.28571469-113.14285687 109.71428625l-17.14285782 34.28571375c-10.28571469 13.71428531-13.71428531 27.42857156-13.71428531 44.57142843 0 58.28571469 44.57142844 102.85714313 102.85714313 102.85714313h555.42857062c17.14285687 0 30.85714313-3.42857156 44.57142938-10.28571469 54.85714313-27.42857156 75.42857156-89.14285687 48-137.14285687z" fill="#FFC53D" p-id="7987"></path><path d="M683.42857156 680V786.28571469c0 37.71428531-30.85714313 68.57142844-68.57142845 68.57142844h-205.71428624c-37.71428531 0-68.57142844-30.85714313-68.57142843-68.57142844v-109.71428625c-24 3.42857156-48 10.28571469-68.57142844 20.57142845V992h480v-294.85714313c-20.57142844-6.85714313-44.57142844-13.71428531-68.57142844-17.14285687z" fill="#FAAD14" p-id="7988"></path></svg>