<?xml version="1.0" standalone="no"?><!DOCTYPE svg PUBLIC "-//W3C//DTD SVG 1.1//EN" "http://www.w3.org/Graphics/SVG/1.1/DTD/svg11.dtd"><svg t="1681573791180" class="icon" viewBox="0 0 1024 1024" version="1.1" xmlns="http://www.w3.org/2000/svg" p-id="10940" xmlns:xlink="http://www.w3.org/1999/xlink" width="200" height="200"><path d="M615.975385 1006.670769h-582.892308v-110.276923c0-63.015385 31.507692-86.646154 94.523077-110.276923 37.809231-14.178462 110.276923-42.535385 157.538461-67.741538l31.507693-26.781539 78.76923 94.523077 94.523077-47.261538h47.261539l94.523077 47.261538 78.769231-94.523077 31.507692 26.781539c47.261538 26.781538 119.729231 55.138462 157.538461 67.741538 63.015385 23.630769 94.523077 47.261538 94.523077 110.276923v110.276923h-157.538461v-110.276923h-94.523077v-31.507692h-31.507692v31.507692h-94.523077v110.276923z" fill="#94C1FF" p-id="10941"></path><path d="M159.113846 786.116923c37.809231-14.178462 110.276923-42.535385 157.538462-67.741538l12.603077-11.027693-12.603077-15.753846-31.507693 26.781539c-47.261538 26.781538-119.729231 55.138462-157.538461 67.741538-63.015385 23.630769-94.523077 47.261538-94.523077 110.276923v110.276923h31.507692v-110.276923c0-63.015385 31.507692-86.646154 94.523077-110.276923z" fill="#D7E9FF" p-id="10942"></path><path d="M868.036923 786.116923c-37.809231-14.178462-110.276923-42.535385-157.538461-67.741538l-12.603077-11.027693 12.603077-15.753846 31.507692 26.781539c47.261538 26.781538 119.729231 55.138462 157.538461 67.741538 63.015385 23.630769 94.523077 47.261538 94.523077 110.276923v110.276923h-31.507692v-110.276923c0-63.015385-31.507692-86.646154-94.523077-110.276923z" fill="#5C9EFF" p-id="10943"></path><path d="M293.021538 935.778462m-55.138461 0a55.138462 55.138462 0 1 0 110.276923 0 55.138462 55.138462 0 1 0-110.276923 0Z" fill="#D7E9FF" p-id="10944"></path><path d="M253.636923 935.778462c0-28.356923 20.48-50.412308 47.261539-53.563077-3.150769 0-4.726154-1.575385-7.876924-1.575385-29.932308 0-55.138462 25.206154-55.138461 55.138462s25.206154 55.138462 55.138461 55.138461c3.150769 0 4.726154 0 7.876924-1.575385-26.781538-3.150769-47.261538-25.206154-47.261539-53.563076z" fill="#FFFFFF" p-id="10945"></path><path d="M332.406154 935.778462c0 28.356923-20.48 50.412308-47.261539 53.563076 3.150769 0 4.726154 1.575385 7.876923 1.575385 29.932308 0 55.138462-25.206154 55.138462-55.138461s-25.206154-55.138462-55.138462-55.138462c-3.150769 0-4.726154 0-7.876923 1.575385 26.781538 3.150769 47.261538 26.781538 47.261539 53.563077z" fill="#94C1FF" p-id="10946"></path><path d="M395.421538 786.116923l-78.76923-94.523077 28.356923-56.713846 26.781538 25.206154 58.289231 40.96 83.495385 22.055384v15.753847z" fill="#FFFFFF" p-id="10947"></path><path d="M631.729231 786.116923l78.769231-94.523077-29.932308-59.864615-26.781539 28.356923-58.28923 40.96-81.92 22.055384v15.753847zM710.498462 864.886154h31.507692v31.507692h-31.507692z" fill="#FFFFFF" p-id="10948"></path><path d="M836.529231 896.393846v110.276923h-220.553846v-110.276923h141.784615zM789.267692 360.763077v31.507692c0 181.169231-170.141538 330.830769-275.692307 330.830769-6.301538 0-14.178462 0-20.48-1.575384-105.550769-17.329231-255.212308-160.689231-255.212308-329.255385v-31.507692l66.166154-113.427692s108.701538 45.686154 207.950769 45.686153c99.249231 0 209.526154-45.686154 209.526154-45.686153l67.741538 113.427692z" fill="#D7E9FF" p-id="10949"></path><path d="M524.603077 721.526154c-105.550769-17.329231-255.212308-160.689231-255.212308-329.255385v-31.507692l59.864616-103.975385c-15.753846-6.301538-25.206154-9.452308-25.206154-9.452307l-66.166154 113.427692v31.507692c0 168.566154 149.661538 311.926154 255.212308 329.255385 6.301538 1.575385 14.178462 1.575385 20.48 1.575384 4.726154 0 11.027692 0 15.753846-1.575384h-4.726154z" fill="#FFFFFF" p-id="10950"></path><path d="M502.547692 721.526154c105.550769-17.329231 255.212308-160.689231 255.212308-329.255385v-31.507692l-59.864615-103.975385c15.753846-6.301538 25.206154-9.452308 25.206153-9.452307l66.166154 113.427692v31.507692c0 168.566154-149.661538 311.926154-255.212307 329.255385-6.301538 1.575385-14.178462 1.575385-20.48 1.575384-4.726154 0-11.027692 0-15.753847-1.575384h4.726154z" fill="#94C1FF" p-id="10951"></path><path d="M658.510769 135.483077S827.076923 111.852308 789.267692 362.338462l-69.316923-113.427693s-110.276923 45.686154-209.526154 45.686154c-99.249231 0-207.950769-45.686154-207.950769-45.686154L236.307692 362.338462C198.498462-58.289231 704.196923 22.055385 704.196923 22.055385c-74.043077 29.932308-45.686154 113.427692-45.686154 113.427692z" fill="#94C1FF" p-id="10952"></path><path d="M658.510769 135.483077s116.578462-20.48 103.975385 182.744615l26.781538 44.11077c37.809231-250.486154-130.756923-226.855385-130.756923-226.855385z" fill="#5C9EFF" p-id="10953"></path><path d="M627.003077 15.753846C486.793846 12.603077 207.950769 45.686154 237.883077 360.763077l29.932308-50.412308C270.966154 61.44 488.369231 18.904615 627.003077 15.753846z" fill="#D7E9FF" p-id="10954"></path><path d="M329.255385 984.615385c-1.575385 0-4.726154-1.575385-6.301539-3.15077-3.150769-3.150769-1.575385-7.876923 1.575385-11.027692l1.575384-1.575385c9.452308-9.452308 14.178462-20.48 14.178462-33.083076 0-20.48-12.603077-37.809231-31.507692-44.11077-4.726154-1.575385-11.027692-3.150769-15.753847-3.150769-26.781538 0-47.261538 20.48-47.261538 47.261539 0 11.027692 4.726154 22.055385 12.603077 31.507692l1.575385 1.575384c3.150769 3.150769 3.150769 7.876923 1.575384 11.027693-3.150769 3.150769-7.876923 3.150769-11.027692 1.575384-1.575385-1.575385-3.150769-1.575385-3.150769-3.150769-9.452308-11.027692-15.753846-26.781538-15.753847-40.96 0-34.658462 28.356923-63.015385 63.015385-63.015384 7.876923 0 14.178462 1.575385 20.48 3.150769 25.206154 9.452308 42.535385 33.083077 42.535385 59.864615 0 17.329231-6.301538 33.083077-18.904616 44.110769l-3.150769 3.15077h-6.301538z" fill="#116FFF" p-id="10955"></path><path d="M308.775385 959.409231c-1.575385 0-4.726154 0-6.301539-1.575385l-31.507692-31.507692c-3.150769-3.150769-3.150769-7.876923 0-11.027692s7.876923-3.150769 11.027692 0l31.507692 31.507692c3.150769 3.150769 3.150769 7.876923 0 11.027692-1.575385 1.575385-3.150769 1.575385-4.726153 1.575385z" fill="#116FFF" p-id="10956"></path><path d="M285.144615 983.04c-1.575385 0-4.726154 0-6.301538-1.575385-3.150769-3.150769-3.150769-7.876923 0-11.027692l23.630769-23.630769c3.150769-3.150769 7.876923-3.150769 11.027692 0s3.150769 7.876923 0 11.027692l-23.630769 23.630769c-1.575385 1.575385-3.150769 1.575385-4.726154 1.575385zM277.267692 927.901538c-1.575385 0-3.150769 0-4.726154-1.575384-3.150769-3.150769-3.150769-7.876923 0-11.027692l61.44-64.59077c3.150769-3.150769 7.876923-3.150769 11.027693 0s3.150769 7.876923 0 11.027693L283.569231 926.326154c-3.150769 1.575385-4.726154 1.575385-6.301539 1.575384z" fill="#116FFF" p-id="10957"></path><path d="M994.067692 1014.547692h-960.984615c-4.726154 0-7.876923-3.150769-7.876923-7.876923v-110.276923c0-67.741538 34.658462-92.947692 99.249231-118.153846 69.316923-26.781538 122.88-48.836923 155.963077-67.741538 3.150769-1.575385 7.876923 0 11.027692 3.150769 1.575385 3.150769 0 7.876923-3.150769 11.027692-34.658462 18.904615-88.221538 42.535385-159.113847 69.316923-59.864615 22.055385-89.796923 44.110769-89.796923 102.4v102.4h945.23077v-102.4c0-59.864615-28.356923-80.344615-89.796923-102.4-69.316923-25.206154-122.88-48.836923-159.113847-69.316923-3.150769-1.575385-4.726154-6.301538-3.150769-11.027692s6.301538-4.726154 11.027692-3.150769c34.658462 18.904615 88.221538 42.535385 155.963077 67.741538 64.590769 23.630769 99.249231 50.412308 99.249231 118.153846v110.276923c3.150769 4.726154-1.575385 7.876923-4.726154 7.876923z" fill="#116FFF" p-id="10958"></path><path d="M513.575385 730.978462c-6.301538 0-14.178462 0-22.055385-1.575385-103.975385-17.329231-261.513846-160.689231-261.513846-337.132308 0-4.726154 3.150769-7.876923 7.876923-7.876923s7.876923 3.150769 7.876923 7.876923c0 168.566154 149.661538 305.624615 248.910769 321.378462 6.301538 1.575385 12.603077 1.575385 18.904616 1.575384 103.975385 0 267.815385-148.086154 267.815384-322.953846 0-4.726154 3.150769-7.876923 7.876923-7.876923s7.876923 3.150769 7.876923 7.876923c0 184.32-174.867692 338.707692-283.56923 338.707693z" fill="#116FFF" p-id="10959"></path><path d="M710.498462 699.470769c-3.150769 0-6.301538-1.575385-6.301539-4.726154l-15.753846-31.507692c-1.575385-3.150769 0-7.876923 3.150769-11.027692 3.150769-1.575385 7.876923 0 11.027692 3.150769l15.753847 31.507692c1.575385 3.150769 0 7.876923-3.15077 11.027693-3.150769 1.575385-4.726154 1.575385-4.726153 1.575384z" fill="#116FFF" p-id="10960"></path><path d="M631.729231 793.993846c-1.575385 0-3.150769 0-4.726154-1.575384-3.150769-3.150769-3.150769-7.876923-1.575385-11.027693l78.769231-94.523077c3.150769-3.150769 7.876923-3.150769 11.027692-1.575384 3.150769 3.150769 3.150769 7.876923 1.575385 11.027692l-78.769231 94.523077c-3.150769 3.150769-4.726154 3.150769-6.301538 3.150769z" fill="#116FFF" p-id="10961"></path><path d="M631.729231 793.993846h-3.150769l-110.276924-47.261538c-4.726154-1.575385-6.301538-6.301538-4.726153-11.027693 1.575385-4.726154 6.301538-6.301538 11.027692-4.726153l110.276923 47.261538c4.726154 1.575385 6.301538 6.301538 4.726154 11.027692-3.150769 3.150769-4.726154 4.726154-7.876923 4.726154zM316.652308 699.470769c-1.575385 0-3.150769 0-3.15077-1.575384-3.150769-1.575385-4.726154-6.301538-3.150769-11.027693l15.753846-31.507692c1.575385-3.150769 6.301538-4.726154 11.027693-3.150769 3.150769 1.575385 4.726154 6.301538 3.150769 11.027692l-15.753846 31.507692c-3.150769 3.150769-6.301538 4.726154-7.876923 4.726154z" fill="#116FFF" p-id="10962"></path><path d="M395.421538 793.993846c-1.575385 0-4.726154-1.575385-6.301538-3.150769l-78.769231-94.523077c-3.150769-3.150769-1.575385-7.876923 1.575385-11.027692 3.150769-3.150769 7.876923-1.575385 11.027692 1.575384l78.769231 94.523077c3.150769 3.150769 1.575385 7.876923-1.575385 11.027693-1.575385 1.575385-3.150769 1.575385-4.726154 1.575384z" fill="#116FFF" p-id="10963"></path><path d="M395.421538 793.993846c-3.150769 0-6.301538-1.575385-7.876923-4.726154-1.575385-4.726154 0-7.876923 4.726154-11.027692l110.276923-47.261538c4.726154-1.575385 7.876923 0 11.027693 4.726153 1.575385 4.726154 0 7.876923-4.726154 11.027693l-110.276923 47.261538h-3.15077zM237.883077 368.64H236.307692c-3.150769 0-6.301538-3.150769-6.301538-6.301538-11.027692-113.427692 17.329231-200.073846 80.344615-261.513847C445.833846-26.781538 694.744615 12.603077 704.196923 14.178462c3.150769 0 6.301538 3.150769 6.301539 6.301538s-1.575385 6.301538-4.726154 7.876923c-56.713846 23.630769-47.261538 78.769231-42.535385 97.673846 17.329231-1.575385 61.44 1.575385 96.098462 36.233846 39.384615 39.384615 50.412308 107.126154 36.233846 200.073847 0 3.150769-3.150769 6.301538-6.301539 6.301538s-6.301538-1.575385-7.876923-3.150769l-66.166154-107.126154c-25.206154 9.452308-118.153846 44.110769-204.8 44.110769s-179.593846-33.083077-204.8-42.535384l-63.015384 107.126153s-3.150769 1.575385-4.726154 1.575385z m482.067692-129.181538c3.150769 0 4.726154 1.575385 6.301539 3.150769l58.28923 94.523077c9.452308-77.193846-3.150769-132.332308-34.658461-165.415385-36.233846-37.809231-88.221538-31.507692-89.796923-31.507692-3.150769 0-7.876923-1.575385-7.876923-4.726154 0-1.575385-23.630769-72.467692 28.356923-110.276923-66.166154-6.301538-252.061538-12.603077-357.612308 86.646154-55.138462 51.987692-81.92 127.606154-77.193846 222.12923l53.563077-91.372307c1.575385-3.150769 6.301538-4.726154 9.452308-3.150769 1.575385 0 108.701538 44.110769 204.8 44.110769s204.8-44.110769 206.375384-44.110769c-3.150769 1.575385-1.575385 0 0 0zM615.975385 998.793846c-4.726154 0-7.876923-3.150769-7.876923-7.876923v-94.523077c0-4.726154 3.150769-7.876923 7.876923-7.876923h78.76923c4.726154 0 7.876923 3.150769 7.876923 7.876923s-3.150769 7.876923-7.876923 7.876923h-70.892307v86.646154c0 4.726154-4.726154 7.876923-7.876923 7.876923zM836.529231 998.793846c-4.726154 0-7.876923-3.150769-7.876923-7.876923v-86.646154h-70.892308c-4.726154 0-7.876923-3.150769-7.876923-7.876923s3.150769-7.876923 7.876923-7.876923h78.769231c4.726154 0 7.876923 3.150769 7.876923 7.876923v94.523077c0 4.726154-4.726154 7.876923-7.876923 7.876923zM742.006154 904.270769h-31.507692c-4.726154 0-7.876923-3.150769-7.876924-7.876923v-31.507692c0-4.726154 3.150769-7.876923 7.876924-7.876923h31.507692c4.726154 0 7.876923 3.150769 7.876923 7.876923v31.507692c0 4.726154-4.726154 7.876923-7.876923 7.876923z m-23.630769-15.753846h15.753846v-15.753846h-15.753846v15.753846z" fill="#116FFF" p-id="10964"></path><path d="M710.498462 912.147692c-4.726154 0-7.876923-3.150769-7.876924-7.876923v-7.876923c0-4.726154 3.150769-7.876923 7.876924-7.876923s7.876923 3.150769 7.876923 7.876923v7.876923c0 4.726154-4.726154 7.876923-7.876923 7.876923zM742.006154 912.147692c-4.726154 0-7.876923-3.150769-7.876923-7.876923v-7.876923c0-4.726154 3.150769-7.876923 7.876923-7.876923s7.876923 3.150769 7.876923 7.876923v7.876923c0 4.726154-4.726154 7.876923-7.876923 7.876923zM789.267692 951.532308h-126.030769c-4.726154 0-7.876923-3.150769-7.876923-7.876923s3.150769-7.876923 7.876923-7.876923h126.030769c4.726154 0 7.876923 3.150769 7.876923 7.876923s-4.726154 7.876923-7.876923 7.876923zM757.76 983.04h-63.015385c-4.726154 0-7.876923-3.150769-7.876923-7.876923s3.150769-7.876923 7.876923-7.876923h63.015385c4.726154 0 7.876923 3.150769 7.876923 7.876923s-4.726154 7.876923-7.876923 7.876923z" fill="#116FFF" p-id="10965"></path></svg>