<?xml version="1.0" standalone="no"?><!DOCTYPE svg PUBLIC "-//W3C//DTD SVG 1.1//EN" "http://www.w3.org/Graphics/SVG/1.1/DTD/svg11.dtd"><svg t="1681566725582" class="icon" viewBox="0 0 1024 1024" version="1.1" xmlns="http://www.w3.org/2000/svg" p-id="2916" xmlns:xlink="http://www.w3.org/1999/xlink" width="200" height="200"><path d="M955.860697 705.59204a376.358209 376.358209 0 0 0-254.726369-228.616916v-115.900497h60.709785a81.936982 81.936982 0 0 0 57.737977-23.137645 28.656716 28.656716 0 0 0 0-40.968491 30.354892 30.354892 0 0 0-42.454395 0 21.227197 21.227197 0 0 1-15.708126 6.368159h-35.661692V213.757877a213.757877 213.757877 0 0 0-427.515754 0v89.578773h-35.44942a21.227197 21.227197 0 0 1-15.920398-6.155887 29.930348 29.930348 0 0 0-41.180763 0 28.232172 28.232172 0 0 0 0 40.331675 81.087894 81.087894 0 0 0 57.737977 23.137645h60.709784v114.839138A371.05141 371.05141 0 0 0 45.001658 830.620232v164.086236A30.14262 30.14262 0 0 0 75.144279 1024h873.711442A30.14262 30.14262 0 0 0 978.998342 994.706468v-164.086236A355.555556 355.555556 0 0 0 955.860697 705.59204zM437.704809 175.973466a81.087894 81.087894 0 1 1 17.618574 88.305141 80.238806 80.238806 0 0 1-17.618574-88.305141z m-57.737976 186.799337h266.189054v135.854063a133.094527 133.094527 0 0 1-266.189054 0z m551.907131 615.588723H93.61194v-106.135987h838.898839z" p-id="2917"></path></svg>