<?xml version="1.0" standalone="no"?><!DOCTYPE svg PUBLIC "-//W3C//DTD SVG 1.1//EN" "http://www.w3.org/Graphics/SVG/1.1/DTD/svg11.dtd"><svg t="1681567349127" class="icon" viewBox="0 0 1024 1024" version="1.1" xmlns="http://www.w3.org/2000/svg" p-id="3052" xmlns:xlink="http://www.w3.org/1999/xlink" width="200" height="200"><path d="M683.673 621.623c0 28.301-22.908 51.204-51.2 51.204-28.302 0-51.21-22.904-51.21-51.204 0-28.303 22.908-51.206 51.21-51.206 28.292 0 51.2 22.903 51.2 51.206z m-296.208-51.174c-28.228 0-51.168 22.94-51.168 51.174 0 28.233 22.94 51.162 51.168 51.162 28.238 0 51.158-22.93 51.158-51.162-0.001-28.234-22.92-51.174-51.158-51.174z m570.282 33.97c0 68.435-76.361 163.759-192.658 200.06-3.353 1.713-18.879 4.861-34.034 6.532-58.582 96.348-173.43 138.533-221.096 138.533-47.087 0-159.808-41.29-219.003-135.323-9.858-1.44-21.767-4.479-36.076-9.742C138.574 768.178 62.255 672.827 62.255 604.39c0-118.926 138.358-159.845 138.358-159.845 0-154.488 102.304-283.645 239.351-317.134v-13.295c0-19.349 15.664-35.002 35.008-35.002h69.994c19.343 0 35.007 15.652 35.007 35.002v13.295c137.058 33.463 239.363 162.62 239.363 317.134 0 0 138.358 46.562 138.411 159.876zM439.965 289.11c0 26.188 39.218 52.374 58.932 63.924 3.69 0.138 7.328 0.476 11.063 0.476 3.722 0 7.297-0.264 10.946-0.407 19.693-11.486 59.068-37.736 59.068-63.991v-69.995H439.965v69.994z m259.667 433.448c3.111-14.564 15.971-24.992 30.83-24.992 18.287 0 62.983-36.33 62.983-68.02 0-34.856-18.932-57.964-31.423-57.964-16.752 0-30.523-13.026-31.464-29.768a359.73 359.73 0 0 0-4.643-40.253c-55.748-27.154-131.865-43.992-215.872-43.992-84.092 0-160.314 16.838-216.051 44.025a369.658 369.658 0 0 0-4.538 40.221c-0.983 16.637-14.784 29.693-31.453 29.693-15.219 0-31.517 23.316-31.517 57.97 0 32.21 49.158 66.714 63.33 67.957 13.855 1.195 27.658 11.38 30.524 24.95 24.261 114.746 152.309 164.068 189.675 164.068 37.355 0 165.39-49.26 189.62-163.895z" p-id="3053"></path></svg>