<?xml version="1.0" standalone="no"?><!DOCTYPE svg PUBLIC "-//W3C//DTD SVG 1.1//EN" "http://www.w3.org/Graphics/SVG/1.1/DTD/svg11.dtd"><svg t="1681567391958" class="icon" viewBox="0 0 1024 1024" version="1.1" xmlns="http://www.w3.org/2000/svg" p-id="3188" xmlns:xlink="http://www.w3.org/1999/xlink" width="200" height="200"><path d="M873.296139 511.73287a41.405217 41.405217 0 0 0-25.778087-38.689392 102.13287 102.13287 0 0 1-42.785391-34.05913 248.431304 248.431304 0 0 1-43.987478-241.352348 37.264696 37.264696 0 0 0-2.849392-33.480348 31.788522 31.788522 0 0 0-24.442434-13.356522h-119.362783a23.863652 23.863652 0 0 0-20.435478 13.356522 27.603478 27.603478 0 0 1-14.825739 13.356522 169.672348 169.672348 0 0 1-66.782609 14.246956A164.730435 164.730435 0 0 1 446.644313 177.686261a56.765217 56.765217 0 0 1-15.716174-14.425044L429.458922 161.702957a28.40487 28.40487 0 0 0-22.795131-11.353044H290.640139a32.990609 32.990609 0 0 0-26.134261 14.157913 35.617391 35.617391 0 0 0-2.537739 32.011131 248.965565 248.965565 0 0 1-37.709913 234.76313 183.251478 183.251478 0 0 1-52.313043 40.069565 44.165565 44.165565 0 0 0-22.26087 38.288696V816.528696a52.357565 52.357565 0 0 0 56.542609 56.275478h270.024348l68.697043 0.26713h5.476174a5.075478 5.075478 0 0 1 1.068522 0H822.318748a47.994435 47.994435 0 0 0 12.822261-1.780869 51.823304 51.823304 0 0 0 38.15513-52.98087v-182.316522-124.126608zM421.801183 711.813565h-223.499131v-26.134261h223.543652z m0-66.025739H202.576139v-26.045217h219.314087v26.045217z m76.354782 115.266783v45.456695a14.157913 14.157913 0 1 1-28.315826 0v-45.456695c0-53.426087 0-108.544 0.712348-162.816a929.079652 929.079652 0 0 0-53.426087-311.02887l-14.06887-41.360696a14.157913 14.157913 0 0 1 26.713044-9.126956l14.068869 41.494261a958.73113 958.73113 0 0 1 55.117914 320.556522c-0.75687 54.093913-0.75687 109.211826-0.75687 162.504347z m324.518957-140.955826v25.778087h-219.225044v-25.778087z m-268.644174 186.412521a14.157913 14.157913 0 1 1-28.315826 0v-45.456695c0-53.426087 0-108.410435-0.667826-162.504348a955.837217 955.837217 0 0 1 55.117913-320.556522l14.068869-41.405217a14.157913 14.157913 0 0 1 26.713044 9.126956l-14.113392 41.271652a933.220174 933.220174 0 0 0-53.426087 311.073392c0.712348 54.272 0.712348 109.434435 0.712348 162.816z m270.825739-94.786782H603.271791v-25.956174h219.403131v2.582261h2.181565z m0 0" p-id="3189"></path></svg>