<?xml version="1.0" standalone="no"?><!DOCTYPE svg PUBLIC "-//W3C//DTD SVG 1.1//EN" "http://www.w3.org/Graphics/SVG/1.1/DTD/svg11.dtd"><svg t="1681567454057" class="icon" viewBox="0 0 1024 1024" version="1.1" xmlns="http://www.w3.org/2000/svg" p-id="3328" xmlns:xlink="http://www.w3.org/1999/xlink" width="200" height="200"><path d="M803.4 141c-2.4 0-4.9 0.2-7.5 0.6l-190.5 31.7c-25.7 4.3-46.7 21.3-46.7 47.4l-142.2-1c-120.8 1.3-179.2-70.6-181.3-74-6.9-11-28.2-18.3-39.3-11.6-11.1 6.8-17.5 25.3-10.7 36.5 1.6 2.6 26.1 40.3 81.1 69.9-43.9 26.7-85.4 86.5-84.6 180.2v304.7c0 13.1 14.5 25.6 27.5 25.6 13.1 0 27.5-12.5 27.5-25.6l1.9-304.9c0-100.7 70.8-150 91.3-158.8 29.9 7.4 57.4 13.4 86.5 14.1h17.1v24.7l-146.7 96.4c-7 4.3-11.3 12-11.3 20.2l0.2 450.8c0 13.1 10.6 23.7 23.7 23.7h331.2c13.1 0 23.7-10.6 23.7-23.7l0.2-450.8c0-8.1-4.2-15.7-11.1-20.1l-150.8-96v-25.2h66.2c0 26 21 50.8 46.7 55.1L796 362.6c2.6 0.5 5.1 0.6 7.5 0.6 22.1 0 39.1-16.7 39.1-40.2V181.2c-0.1-23.5-17.1-40.2-39.2-40.2zM601.1 701.7h-90.5v-142h90.6l-0.1 142z m-1.5-263v68.2H476.1c-12.4 0-22.4 10-22.4 22.4v198.9c0 12.4 10 22.4 22.4 22.4h123.4v80.5h-269l-0.2-392.2 136.5-83.4 132.8 83.2z m177.5-136.1l-147.3-24.5c-2.3-0.4-5.8-4.5-5.8-6.8V233c0-2.4 3.4-6.4 5.8-6.8l147.3-24.5v100.9z" p-id="3329"></path></svg>