<?xml version="1.0" standalone="no"?><!DOCTYPE svg PUBLIC "-//W3C//DTD SVG 1.1//EN" "http://www.w3.org/Graphics/SVG/1.1/DTD/svg11.dtd"><svg t="1681567508779" class="icon" viewBox="0 0 1024 1024" version="1.1" xmlns="http://www.w3.org/2000/svg" p-id="6624" xmlns:xlink="http://www.w3.org/1999/xlink" width="200" height="200"><path d="M192 746.666667a85.333333 85.333333 0 1 1 0 170.666666 85.333333 85.333333 0 0 1 0-170.666666z m640 0a85.333333 85.333333 0 1 1 0 170.666666 85.333333 85.333333 0 0 1 0-170.666666zM192 106.666667a85.333333 85.333333 0 1 1 0 170.666666 85.333333 85.333333 0 0 1 0-170.666666z m640 0a85.333333 85.333333 0 1 1 0 170.666666 85.333333 85.333333 0 0 1 0-170.666666z" fill="#E9FF5B" p-id="6625"></path><path d="M327.765333 56.234667a21.333333 21.333333 0 0 1 0 30.165333l-46.762666 46.784C292.16 150.037333 298.666667 170.24 298.666667 192c0 12.629333-2.197333 24.746667-6.229334 36.010667a63.594667 63.594667 0 0 1 41.728 15.829333l3.072 2.88 22.144 22.122667 40.405334-85.930667A21.333333 21.333333 0 0 1 419.093333 170.666667h186.325334a21.333333 21.333333 0 0 1 19.328 12.330666l39.125333 83.989334 20.309333-20.266667a63.893333 63.893333 0 0 1 47.381334-18.709333A106.368 106.368 0 0 1 725.333333 192c0-21.738667 6.506667-41.941333 17.664-58.794667L696.234667 86.4a21.333333 21.333333 0 0 1 30.165333-30.165333l46.784 46.741333a106.666667 106.666667 0 0 1 147.818667 147.818667l46.762666 46.784a21.333333 21.333333 0 0 1-30.165333 30.186666l-46.805333-46.784A106.176 106.176 0 0 1 832 298.666667c-13.653333 0-26.666667-2.56-38.677333-7.232 0.106667 14.933333-5.034667 29.994667-15.509334 42.432l-3.114666 3.370666L682.666667 429.226667v162.922666l92.032 92.032c13.290667 13.290667 19.498667 30.976 18.666666 48.384A106.176 106.176 0 0 1 832 725.333333c21.76 0 41.962667 6.506667 58.816 17.664l46.784-46.741333a21.333333 21.333333 0 1 1 30.165333 30.165333l-46.762666 46.784a106.666667 106.666667 0 0 1-147.818667 147.818667l-46.784 46.762667a21.333333 21.333333 0 1 1-30.165333-30.186667l46.762666-46.784A106.176 106.176 0 0 1 725.333333 832c0-13.653333 2.56-26.666667 7.232-38.677333a63.68 63.68 0 0 1-48.384-18.624l-19.413333-19.413334-39.637333 85.674667a21.333333 21.333333 0 0 1-19.370667 12.373333h-186.496a21.333333 21.333333 0 0 1-19.285333-12.224l-41.408-87.786666-21.333334 21.376a63.466667 63.466667 0 0 1-45.802666 18.645333C296.106667 805.333333 298.666667 818.368 298.666667 832c0 21.76-6.506667 41.962667-17.664 58.816l46.762666 46.784a21.333333 21.333333 0 0 1-30.165333 30.186667l-46.805333-46.784a106.666667 106.666667 0 0 1-147.818667-147.818667l-46.72-46.762667a21.333333 21.333333 0 0 1 30.144-30.165333l46.784 46.741333A106.176 106.176 0 0 1 192 725.333333c12.672 0 24.832 2.218667 36.117333 6.272a64.981333 64.981333 0 0 1 15.488-44.053333l3.114667-3.370667L341.333333 589.504v-157.653333l-94.613333-94.613334a63.786667 63.786667 0 0 1-18.752-44.8A106.026667 106.026667 0 0 1 192 298.666667a106.176 106.176 0 0 1-58.816-17.664L86.4 327.765333a21.333333 21.333333 0 0 1-30.165333-30.165333l46.762666-46.784a106.666667 106.666667 0 0 1 147.818667-147.818667l46.784-46.762666a21.333333 21.333333 0 0 1 30.165333 0zM832 768a64 64 0 0 0-57.749333 91.605333l16.533333-16.554666c1.856 6.997333 5.546667 13.653333 11.050667 19.136 5.482667 5.504 12.117333 9.173333 19.114666 11.050666l-16.533333 16.533334a64 64 0 0 0 85.333333-85.333334l-16.533333 16.533334a42.453333 42.453333 0 0 0-11.050667-19.136 42.453333 42.453333 0 0 0-19.136-11.050667l16.554667-16.554667A63.744 63.744 0 0 0 832 768zM192 768c-9.877333 0-19.221333 2.24-27.584 6.229333l16.554667 16.554667a42.453333 42.453333 0 0 0-19.136 11.050667 42.453333 42.453333 0 0 0-11.050667 19.136l-16.554667-16.533334a64 64 0 0 0 85.354667 85.333334l-16.533333-16.533334a42.453333 42.453333 0 0 0 19.114666-11.050666 42.453333 42.453333 0 0 0 11.050667-19.136l16.554667 16.533333A64 64 0 0 0 192 768z m640 42.666667a21.333333 21.333333 0 1 1 0 42.666666 21.333333 21.333333 0 0 1 0-42.666666zM192 810.666667a21.333333 21.333333 0 1 1 0 42.666666 21.333333 21.333333 0 0 1 0-42.666666z m399.808-597.333334H432.64L384 316.757333v390.464L432.789333 810.666667h159.36l40.490667-87.509334-0.064-0.042666 7.424-15.850667-0.021333-157.802667 0.021333 0.021334V471.893333l-0.021333 0.064 0.021333-155.221333-8.256-17.621333 0.021333-0.042667L591.808 213.333333zM341.333333 649.898667l-63.808 63.786666-1.898666 2.048c-7.082667 8.405333-6.570667 20.949333 0.597333 28.16l2.048 1.898667a21.333333 21.333333 0 0 0 28.8-1.28L341.333333 710.250667v-60.330667z m341.333334 2.581333v60.373333l31.68 31.658667a21.333333 21.333333 0 1 0 30.165333-30.165333L682.666667 652.48zM512 640a21.333333 21.333333 0 0 1 21.333333 21.333333v42.666667a21.333333 21.333333 0 0 1-42.666666 0v-42.666667a21.333333 21.333333 0 0 1 21.333333-21.333333zM276.906667 276.906667a21.333333 21.333333 0 0 0 0 30.144L341.333333 371.498667v-60.352l-34.282666-34.261334a21.333333 21.333333 0 0 0-30.165334 0z m437.44 0L682.666667 308.522667v60.373333l61.226666-61.205333 1.898667-2.026667c7.082667-8.405333 6.570667-20.949333-0.618667-28.16l-2.325333-2.133333a21.333333 21.333333 0 0 0-28.501333 1.493333zM192 128a64 64 0 0 0-57.770667 91.584l16.554667-16.554667c1.856 7.018667 5.546667 13.653333 11.050667 19.136 5.482667 5.504 12.117333 9.173333 19.114666 11.050667l-16.533333 16.554667a64 64 0 0 0 85.333333-85.333334l-16.533333 16.533334a42.453333 42.453333 0 0 0-11.050667-19.136 42.453333 42.453333 0 0 0-19.136-11.050667l16.554667-16.554667A63.744 63.744 0 0 0 192 128z m640 0c-9.877333 0-19.221333 2.24-27.584 6.229333l16.554667 16.554667a42.453333 42.453333 0 0 0-19.136 11.050667 42.453333 42.453333 0 0 0-11.050667 19.136l-16.554667-16.533334a64 64 0 0 0 85.354667 85.333334l-16.533333-16.533334a42.453333 42.453333 0 0 0 19.114666-11.050666 42.453333 42.453333 0 0 0 11.050667-19.136l16.554667 16.533333A64 64 0 0 0 832 128zM192 170.666667a21.333333 21.333333 0 1 1 0 42.666666 21.333333 21.333333 0 0 1 0-42.666666z m640 0a21.333333 21.333333 0 1 1 0 42.666666 21.333333 21.333333 0 0 1 0-42.666666z" fill="#4E4E4E" p-id="6626"></path></svg>