<?xml version="1.0" standalone="no"?><!DOCTYPE svg PUBLIC "-//W3C//DTD SVG 1.1//EN" "http://www.w3.org/Graphics/SVG/1.1/DTD/svg11.dtd"><svg t="1681573579126" class="icon" viewBox="0 0 1024 1024" version="1.1" xmlns="http://www.w3.org/2000/svg" p-id="1679" xmlns:xlink="http://www.w3.org/1999/xlink" width="200" height="200"><path d="M707.3 832.1L631.5 904l-2.2 2.1H394.7l-2.2-2.1-75.7-71.9c23.4-89.3 83.4-130.1 83.4-130.1h223.7s59.9 40.8 83.4 130.1z" fill="#64C4F6" p-id="1680"></path><path d="M394.7 827.1v79h-87.2c0-27.6 3.5-57.2 9.3-79h77.9zM716.5 906.1h-87.2v-79h77.9c5.7 21.8 9.3 51.4 9.3 79z" fill="#FFECE3" p-id="1681"></path><path d="M249.7 470.5m-76.8 0a76.8 76.8 0 1 0 153.6 0 76.8 76.8 0 1 0-153.6 0Z" fill="#F7DBD0" p-id="1682"></path><path d="M774.3 470.5m-76.8 0a76.8 76.8 0 1 0 153.6 0 76.8 76.8 0 1 0-153.6 0Z" fill="#F7DBD0" p-id="1683"></path><path d="M483.4 702v204.1h-88.7l-2.2-2.1c-0.7-13.5-1-27.2-1-41.2 0-9 0.1-18 0.4-26.8 0.2-6 0.4-11.9 0.8-17.8 0.3-5.6 0.7-11.1 1.1-16.6 0.5-6 1-11.9 1.5-17.8 2.9-29.1 7.3-56.6 13.1-81.9l75 0.1zM632.5 862.8c0 14-0.3 27.7-1 41.2l-2.2 2.1h-88.7V702h75c5.8 25.2 10.2 52.7 13.1 81.9 0.6 5.9 1.1 11.8 1.5 17.8 0.4 5.5 0.8 11 1.1 16.6 0.3 5.9 0.6 11.8 0.8 17.8 0.3 8.7 0.4 17.7 0.4 26.7z" fill="#FCE170" p-id="1684"></path><path d="M512 459.5m-269.3 0a269.3 269.3 0 1 0 538.6 0 269.3 269.3 0 1 0-538.6 0Z" fill="#FFECE3" p-id="1685"></path><path d="M812.6 394c-4.1 0.1-8.3 0.2-12.4 0.2-83.8 0-162.2-23.1-229.1-63.4-69.3 44.5-151.8 70.4-240.4 70.4-40.9 0-80.6-5.5-118.3-15.9 11-87.8 60.1-164.1 130.1-211.9C390.9 140.3 449.3 121 512 121s121 19.4 169.4 52.4c15.7 10.7 30.4 22.9 43.8 36.3 48.4 48.3 80.5 112.7 87.4 184.3z" fill="#5C6A7C" p-id="1686"></path><path d="M395.3 783.9h88.1v17.8h-89.7c0.5-6 1-12 1.6-17.8zM630.3 801.6h-89.7v-17.8h88.1c0.6 5.9 1.1 11.9 1.6 17.8zM392.7 818.2h90.7V836h-91.5c0.2-6 0.4-11.9 0.8-17.8zM632.1 836h-91.5v-17.8h90.7c0.4 5.9 0.6 11.8 0.8 17.8z" fill="#E96E67" p-id="1687"></path><path d="M800.4 340.1c0 6.4-0.2 12.7-0.6 18.9H224.2c-0.4-6.2-0.6-12.5-0.6-18.9 0-19.1 1.8-37.7 5.4-55.8C255 151.7 371.8 51.6 512 51.6s257.1 100.1 283 232.7c3.6 18.1 5.4 36.7 5.4 55.8z" fill="#FCE170" p-id="1688"></path><path d="M539.9 39.3h-55.8c-19.2 0-34.8 15.6-34.8 34.8V309c0 7 5.7 12.7 12.7 12.7h100.1c7 0 12.7-5.7 12.7-12.7V74.2c-0.1-19.2-15.7-34.9-34.9-34.9z" fill="#AD6D5A" p-id="1689"></path><path d="M512 117.2c-40.2 0-73 32.7-73 73s32.7 73 73 73c40.2 0 73-32.7 73-73s-32.8-73-73-73z" fill="#D79B89" p-id="1690"></path><path d="M851 321.7c0 10.3-4.2 19.6-11 26.4s-16.1 11-26.4 11H210.3c-20.5 0-37.3-16.8-37.3-37.3 0-10.3 4.2-19.6 11-26.4s16.1-11 26.4-11h603.4c20.4-0.1 37.2 16.7 37.2 37.3z" fill="#F5C73E" p-id="1691"></path><path d="M436.3 526.3c-7 0-12.7-5.7-12.7-12.7v-10.2c0-7 5.7-12.7 12.7-12.7s12.7 5.7 12.7 12.7v10.2c0 7.1-5.7 12.7-12.7 12.7zM587.7 526.3c-7 0-12.7-5.7-12.7-12.7v-10.2c0-7 5.7-12.7 12.7-12.7s12.7 5.7 12.7 12.7v10.2c0 7.1-5.7 12.7-12.7 12.7zM512 597.7c-16.4 0-31.9-7.1-42.7-19.4-4.6-5.3-4-13.3 1.2-17.9 5.3-4.6 13.3-4 17.9 1.2 6 6.8 14.6 10.8 23.6 10.8s17.6-3.9 23.6-10.7c4.6-5.3 12.6-5.8 17.9-1.2 5.3 4.6 5.8 12.6 1.2 17.9-10.8 12.2-26.3 19.3-42.7 19.3z" fill="#450064" p-id="1692"></path><path d="M821.8 397.9c0.6-1.5 0.9-3.2 0.8-4.8-0.7-8-1.9-16.1-3.3-24.3 10.5-1.2 20.2-5.9 27.9-13.6 9-9 13.9-20.9 13.9-33.5 0-12.7-5-24.6-14-33.6-8.9-8.9-20.8-13.8-33.2-13.7h-10.7C790.9 219.9 763.7 170.1 724 130c-40.6-41-91.4-69.1-147.4-81.4-8.3-11.9-22-19.2-36.7-19.2h-55.8c-14.7 0-28.4 7.3-36.7 19.2C391.5 61 340.6 89.1 300.1 130c-39.7 40.1-66.9 89.8-79.2 144.4h-10.5c-12.6 0-24.5 4.9-33.5 13.9S163 309.2 163 321.8c0 24.2 18.3 44.2 41.8 47-0.9 5.1-1.7 10.2-2.3 15.3-0.5 4.3 1.8 8.4 5.6 10.2-7.3 4-14 9-20 15.1-16.2 16.4-25.1 38.1-25.1 61.1 0 47.9 38.9 86.8 86.8 86.8h0.6C274 620.5 320.5 673.7 380 705.7c-19.6 17.9-52.2 54.9-70.1 114.1-1.3 1.2-2.3 2.8-2.8 4.7-6 22.7-9.6 53.2-9.6 81.6 0 5.5 4.5 10 10 10h409c5.5 0 10-4.5 10-10 0-28-3.6-58.5-9.6-81.5-0.5-1.8-1.4-3.3-2.6-4.5-18-59.5-51.5-97-70.3-114.4 59.5-32 106-85.1 129.7-148.3h0.6c47.9 0 86.8-38.9 86.8-86.8 0-30.4-15.6-57.2-39.3-72.7z m-546.6-10.2h-0.1-0.1c-6.8-0.9-13.5-1.9-20-3-1.3-0.6-2.7-0.9-4.1-0.9h-0.9c-8.9-1.7-17.7-3.6-26.3-5.8 0.5-2.9 1-5.9 1.5-8.8H468c-44 14.7-90 22.1-137.4 22.1-18.7-0.1-37.3-1.3-55.4-3.6z m523.7-18.6c1 5.1 1.8 10.1 2.5 15.1h-1.2c-8.4 0-17-0.3-26.5-0.8-29.8-1.8-59.1-6.6-87.6-14.3h112.8z m-16.3-94.7H584.7v-44.2c6.6-11.9 10.3-25.5 10.3-40s-3.7-28.1-10.3-40v-76c0-1 0-2.1-0.1-3.1 47.3 12.8 90.3 37.8 125.2 73 35.9 36.3 61 81.1 72.8 130.3z m-323.3 0v-20.1c14.3 11.8 32.7 18.9 52.7 18.9s38.4-7.1 52.7-18.9v20.1H459.3z m-1.1-51.5c-0.2-0.3-0.3-0.6-0.5-0.9-5.5-9.3-8.7-20.2-8.7-31.8 0-11.6 3.2-22.5 8.7-31.8 0.2-0.3 0.4-0.6 0.5-0.9 11.1-18.1 31.1-30.3 53.8-30.3 22.8 0 42.7 12.1 53.8 30.3 0.2 0.3 0.3 0.6 0.5 0.9 5.5 9.4 8.7 20.2 8.7 31.8 0 11.6-3.2 22.5-8.7 31.8-0.2 0.3-0.4 0.6-0.5 0.9-11.1 18.1-31.1 30.3-53.8 30.3-22.8 0-42.7-12.1-53.8-30.3z m2.4-156.6c16.7-3.1 34-4.7 51.4-4.7 17 0 34.3 1.6 51.4 4.7 0.8 2.5 1.3 5.1 1.3 7.9v51.9c-14.3-11.8-32.7-18.9-52.7-18.9s-38.4 7.1-52.7 18.9V74.2c0-2.7 0.4-5.4 1.3-7.9z m-146.3 77.8c34.9-35.2 77.9-60.2 125.1-73-0.1 1-0.1 2-0.1 3.1v76c-6.6 11.9-10.3 25.5-10.3 40s3.7 28.1 10.3 40v44.2H241.4c11.9-49.2 36.9-94 72.9-130.3zM183 321.8c0-7.3 2.9-14.1 8.1-19.3 5.2-5.2 12.1-8.1 19.3-8.1h603.5c7.1 0 13.8 2.8 18.9 7.9 5.2 5.2 8.1 12.1 8.1 19.4 0 7.3-2.9 14.1-8.1 19.3-5.2 5.2-12.1 8.1-19.3 8.1H807h-43.7c-0.4-0.1-0.9-0.1-1.3-0.1H262.1c-0.5 0-0.9 0-1.3 0.1H210.4c-15.2 0-27.4-12.2-27.4-27.3z m-0.1 148.7c0-32.8 23.9-60.3 55.2-65.8-3.6 18.1-5.4 36.4-5.4 54.8 0 26.4 3.7 52.4 10.9 77.5-34-3.1-60.7-31.7-60.7-66.5z m211.5 249.3c-3.9 20-6.9 41.1-9.1 63-0.6 6.1-1.1 12.1-1.5 18.1-0.4 5.3-0.8 10.7-1.1 16.2h-50.8c17.3-50.9 46.5-82.8 62.5-97.3z m-69.8 117.3h57.2c-0.2 7.6-0.4 16.1-0.4 25.7 0 11.8 0.2 22.7 0.6 33.3h-64.5c0.8-20.7 3.3-41.7 7.1-59z m77.5 59c-0.4-10.5-0.6-21.5-0.6-33.3 0-10 0.1-18.7 0.4-26.5l0.3-8.9c0.1-2.9 0.2-5.8 0.4-8.5v-0.2c0.3-5.5 0.7-11.1 1.1-16.5 0.4-5.8 0.9-11.5 1.5-17.5 2.2-22.2 5.4-43.5 9.3-63.5 19.1 7.1 38.9 12.1 58.9 14.9V896h-71.3zM512 738.8c6.2 0 12.4-0.2 18.6-0.6v157.9h-37.2V738.2c6.2 0.4 12.4 0.6 18.6 0.6z m38.6-2.6c20.1-2.8 39.9-7.8 59-14.9 3.9 20.2 7.1 41.4 9.3 63.5v0.1c0.5 5.8 1 11.6 1.5 17.6 0.4 5.3 0.8 10.8 1.1 16.3 0.1 1.5 0.1 3 0.2 4.5 0.1 1.4 0.1 2.8 0.2 4.3l0.3 8.9c0.3 7.8 0.4 16.4 0.4 26.5 0 11.8-0.2 22.8-0.6 33.3h-71.3V736.2z m91.3 159.9c0.4-10.6 0.6-21.5 0.6-33.3 0-9.7-0.1-18.1-0.4-25.7h57.2c3.9 17.5 6.4 38.6 7 59h-64.4z m50.4-79h-51c-0.3-5.5-0.7-11-1.1-16.2v-0.1c-0.5-5.9-1-11.8-1.5-17.6v-0.2-0.2c-2.2-21.9-5.3-43.1-9.1-63.2 16 14.5 45.3 46.4 62.7 97.5z m-70.4-122.7c-0.1 0-0.1 0 0 0-0.1 0-0.1 0 0 0-2.9 1.4-5.9 2.8-8.9 4-23.5 9.9-48.2 16.3-73.4 19-18 1.9-37.1 1.9-55.1 0-25.2-2.6-49.9-9-73.4-19-0.1 0-0.2-0.1-0.3-0.1-2.5-1-5-2.1-7.6-3.3-0.5-0.3-0.9-0.5-1.4-0.7-63.2-29.8-112.4-84.7-135-150.6-9.3-27-14-55.3-14-84.2 0-18.1 1.9-36.3 5.6-54 4.7 0.8 9.5 1.4 14.3 2.1 18.9 2.4 38.4 3.7 58 3.7 66.9 0 131.3-14.2 191.4-42.1h102.6c44.7 18.7 91.9 30.1 140.5 33.8 4.1 18.5 6.2 37.5 6.2 56.6 0 28.8-4.7 57.2-14 84.2v0.1c-22.8 65.8-72.1 120.7-135.5 150.5zM780.4 537c7.2-25.1 10.9-51.1 10.9-77.5 0-18.4-1.8-36.8-5.4-54.8 31.3 5.5 55.2 32.9 55.2 65.8 0 34.8-26.7 63.4-60.7 66.5z" fill="#450064" p-id="1693"></path></svg>