<?xml version="1.0" standalone="no"?><!DOCTYPE svg PUBLIC "-//W3C//DTD SVG 1.1//EN" "http://www.w3.org/Graphics/SVG/1.1/DTD/svg11.dtd"><svg t="1681573643326" class="icon" viewBox="0 0 1024 1024" version="1.1" xmlns="http://www.w3.org/2000/svg" p-id="1631" xmlns:xlink="http://www.w3.org/1999/xlink" width="200" height="200"><path d="M814 422.9v392.9c0 6.2-5.1 11.3-11.3 11.3H221.4c-6.2 0-11.3-5.1-11.3-11.3V422.9c0-12.7 0.8-25.3 2.4-37.6 11-87.8 60.1-164.1 130.1-211.9C390.9 140.3 449.3 121 512 121s121 19.4 169.4 52.4c15.7 10.7 30.4 22.9 43.8 36.3 48.3 48.3 80.4 112.8 87.3 184.3 1 9.5 1.5 19.2 1.5 28.9z" fill="#47515E" p-id="1632"></path><path d="M707.3 832.1L631.5 904l-2.2 2.1H394.7l-2.2-2.1-75.7-71.9c23.4-89.3 83.4-130.1 83.4-130.1h223.7s59.9 40.8 83.4 130.1z" fill="#F3F3F3" p-id="1633"></path><path d="M394.7 827.1v79h-87.2c0-27.6 3.5-57.2 9.3-79h77.9zM716.5 906.1h-87.2v-79h77.9c5.7 21.8 9.3 51.4 9.3 79z" fill="#F3F3F3" p-id="1634"></path><path d="M525.6 768.7v137.4h-27.2V768.7l-87.2-58.4h202.6z" fill="#64C4F6" p-id="1635"></path><path d="M525.6 768.7l40.6 23.7c14.6 8.6 33.3 0.4 37-16.1l16.6-74.3-94.2 66.7zM404.3 702l16.6 74.3c3.7 16.5 22.4 24.6 37 16.1l40.6-23.7-94.2-66.7z" fill="#FFFFFF" p-id="1636"></path><path d="M507.3 720l-0.3 0.5-0.3-0.5h0.3z" fill="#EFEAEB" p-id="1637"></path><path d="M507.3 720l-0.3 0.5-0.3-0.5h0.3z" fill="#EFEAEB" p-id="1638"></path><path d="M507.3 720l-0.3 0.5-0.3-0.5h0.3z" fill="#EFEAEB" p-id="1639"></path><path d="M507.3 720l-0.3 0.5-0.3-0.5h0.3z" fill="#EFEAEB" p-id="1640"></path><path d="M392.4 741.6c-5.8 0-10.5-4.7-10.5-10.5v-51.4c0-50.8 39.7-92.5 90.4-95.1 5.8-0.3 10.7 4.2 11 9.9 0.3 5.8-4.2 10.7-9.9 11-39.5 2-70.5 34.6-70.5 74.2v51.4c-0.1 5.9-4.8 10.5-10.5 10.5z" fill="#450064" p-id="1641"></path><path d="M629.4 805.5m-36.5 0a36.5 36.5 0 1 0 73 0 36.5 36.5 0 1 0-73 0Z" fill="#450064" p-id="1642"></path><path d="M427 891.3h-13.1c-5.8 0-10.5-4.7-10.5-10.5s4.7-10.5 10.5-10.5H427c1.6 0 3.1-0.7 4.2-1.8 1.1-1.2 1.6-2.7 1.5-4.3l-7.6-87.9c-0.3-3.5-1.1-6.9-2.5-10.1-4.8-11.4-16.3-18.8-29.2-18.8h-1.9c-13.3 0.1-25.2 8.2-29.6 20.2-1 2.8-1.7 5.7-1.9 8.6l-7.6 87.9c-0.1 1.6 0.4 3.1 1.5 4.3s2.6 1.8 4.2 1.8h13.1c5.8 0 10.5 4.7 10.5 10.5s-4.7 10.5-10.5 10.5h-13.1c-7.4 0-14.5-3.1-19.5-8.5s-7.6-12.8-7-20.1l7.6-87.9c0.4-4.9 1.4-9.6 3.1-14.2 7.4-20.1 27.2-33.7 49.1-33.9h2.1c21.4 0 40.4 12.3 48.5 31.5 2.2 5.3 3.6 10.9 4 16.6l7.6 87.9c0.6 7.4-2 14.7-7 20.1-5.1 5.5-12.2 8.6-19.6 8.6zM629.5 809.1c-5.8 0-10.5-4.7-10.5-10.5V679.8c0-39.7-31-72.3-70.7-74.2-5.8-0.3-10.2-5.2-10-11 0.3-5.8 5.2-10.2 11-10 50.8 2.4 90.6 44.2 90.6 95.1v118.8c0.1 5.9-4.6 10.6-10.4 10.6z" fill="#450064" p-id="1643"></path><path d="M249.7 470.5m-76.8 0a76.8 76.8 0 1 0 153.6 0 76.8 76.8 0 1 0-153.6 0Z" fill="#F7DBD0" p-id="1644"></path><path d="M774.3 470.5m-76.8 0a76.8 76.8 0 1 0 153.6 0 76.8 76.8 0 1 0-153.6 0Z" fill="#F7DBD0" p-id="1645"></path><path d="M512 459.5m-269.3 0a269.3 269.3 0 1 0 538.6 0 269.3 269.3 0 1 0-538.6 0Z" fill="#FFECE3" p-id="1646"></path><path d="M812.6 394c-4.1 0.1-8.3 0.2-12.4 0.2-83.8 0-162.2-23.1-229.1-63.4-69.3 44.5-151.8 70.4-240.4 70.4-40.9 0-80.6-5.5-118.3-15.9 11-87.8 60.1-164.1 130.1-211.9C390.9 140.3 449.3 121 512 121s121 19.4 169.4 52.4c15.7 10.7 30.4 22.9 43.8 36.3 48.4 48.3 80.5 112.7 87.4 184.3z" fill="#5C6A7C" p-id="1647"></path><path d="M326.5 558.2a49.8 39.5 0 1 0 99.6 0 49.8 39.5 0 1 0-99.6 0Z" fill="#FFD7DF" p-id="1648"></path><path d="M597.9 558.2a49.8 39.5 0 1 0 99.6 0 49.8 39.5 0 1 0-99.6 0Z" fill="#FFD7DF" p-id="1649"></path><path d="M436.3 526.3c-7 0-12.7-5.7-12.7-12.7v-10.2c0-7 5.7-12.7 12.7-12.7s12.7 5.7 12.7 12.7v10.2c0 7.1-5.7 12.7-12.7 12.7zM587.7 526.3c-7 0-12.7-5.7-12.7-12.7v-10.2c0-7 5.7-12.7 12.7-12.7s12.7 5.7 12.7 12.7v10.2c0 7.1-5.7 12.7-12.7 12.7zM512 597.7c-16.4 0-31.9-7.1-42.7-19.4-4.6-5.3-4-13.3 1.2-17.9 5.3-4.6 13.3-4 17.9 1.2 6 6.8 14.6 10.8 23.6 10.8s17.6-3.9 23.6-10.7c4.6-5.3 12.6-5.8 17.9-1.2 5.3 4.6 5.8 12.6 1.2 17.9-10.8 12.2-26.3 19.3-42.7 19.3z" fill="#450064" p-id="1650"></path></svg>