<?xml version="1.0" standalone="yes"?>
<svg width="16" height="16" xmlns="http://www.w3.org/2000/svg" xmlns:svg="http://www.w3.org/2000/svg" xmlns:se="http://svg-edit.googlecode.com" class="bi bi-fire" se:nonce="27144">
 <g class="layer">
  <title>Layer 1</title>
  <path d="m8,16c3.31,0 6,-2 6,-5.5c0,-1.5 -0.5,-4 -2.5,-6c0.25,1.5 -1.25,2 -1.25,2c0.75,-2.5 -1.25,-6 -4.25,-6.5c0.36,2 0.5,4 -2,6c-1.25,1 -2,2.73 -2,4.5c0,3.5 2.69,5.5 6,5.5zm0,-1c-1.66,0 -3,-1 -3,-2.75c0,-0.75 0.25,-2 1.25,-3c-0.12,0.75 0.75,1.25 0.75,1.25c-0.37,-1.25 0.5,-3.25 2,-3.5c-0.18,1 -0.25,2 1,3c0.63,0.5 1,1.36 1,2.25c0,1.75 -1.34,2.75 -3,2.75z" fill="#FF9400FF" id="svg_27144_1"/>
 </g>
</svg>