<?xml version="1.0" standalone="no"?><!DOCTYPE svg PUBLIC "-//W3C//DTD SVG 1.1//EN" "http://www.w3.org/Graphics/SVG/1.1/DTD/svg11.dtd"><svg t="1681476500512" class="icon" viewBox="0 0 1024 1024" version="1.1" xmlns="http://www.w3.org/2000/svg" p-id="2553" xmlns:xlink="http://www.w3.org/1999/xlink" width="200" height="200"><path d="M803.46 751.6h-27.29l-15.08-283.2-1.23-21.72h-21.94V423.6c4.38-3.46 8.46-7.64 11.98-12.56 7.17-9.99-1.2-21.31 16.65-51.27 17.85-29.95-7.43-37.53-19.1-30.3 0 0-7.05 10.24 4.63-10.53 11.67-20.77-11.96-50.22-32.98-30.17-21.03 20.05-20.89 15.61-31.77 34.08 0 0-15.93-4.32-23.99 10.95-8.06 15.27-11.9 44.25-9.94 59.96 1.23 9.89 4.87 18.6 10.12 25.32v27.6h-23.13v24.52l-14.93 280.4h-16.53l-19.72-370.34-1.28-21.72h-35.51v-56.88c7.98-5.27 15.39-12.37 21.53-20.93 8.97-12.5 9.33-25.81 9.66-37.57 0.42-15.03-1.16-28.35 18.17-45.42 19.33-17.07 2.24-48.51-23.85-37.84-6.19 2.54-9.87 4.03-11.97 4.89 1.12-8.21-0.13-11.19 10.69-28.94 10.98-18.02-4.94-53.32-32.98-30.17-28.05 23.16-36.91 31.85-53.24 59.39 0 0-18.3-21.27-30.95 7.25-12.66 28.52-17.12 64.7-14.33 87.17 1.87 14.99 7.79 27.87 16.16 36.94v62.11h-36.69v25.82l-19.5 366.24h-14.23L375.8 468.4l-1.23-21.72h-21.94V423.6c4.38-3.46 8.46-7.64 11.98-12.56 7.17-9.99-1.2-21.31 16.65-51.27 17.85-29.95-7.43-37.53-19.1-30.3 0 0-7.05 10.24 4.63-10.53 11.67-20.77-11.96-50.22-32.98-30.17-21.03 20.05-20.89 15.61-31.77 34.08 0 0-15.93-4.32-23.99 10.95-8.06 15.27-11.9 44.25-9.94 59.96 1.23 9.89 4.87 18.6 10.12 25.32v27.6H255.1v24.52l-14.93 280.4h-27.48v70.54h188.67l-1.12 21.06h-42.9v85.01H656.4V843.2h-42.6l-1.12-21.06h190.77V751.6zM565.91 166.17c0.01-0.09 0.02-0.16 0.03-0.24 0.64-0.2 0.92-0.24-0.03 0.24z" fill="#FFFFFF" p-id="2554"></path><path d="M547.27 206.01c-5.15-19.9-10.85-44.61 9.41-80.44-24.17 16.67-58.11 65.04-67.77 91.61-0.39 1.05-0.7 2.11-1.04 3.17-5.03-8.51-8.78-19.72-8.13-36.31-8.93 16.91-14.13 55.24-11.84 73.63 2.29 18.38 13.4 32.13 24.83 30.71 5-0.62 9.22-4.04 12.21-9.23 1.28 3.13 3.2 5.78 5.86 7.68 11.42 8.18 31.35-0.07 44.53-18.45 13.17-18.38-7.6-47.97 30.24-85.84-10.8 3.79-25.03 12.96-38.3 23.47zM592.06 866.14l-25.75-483.67-0.12 0.01v-0.01H529.5V303.5h-45.25v78.97h-36.69v3.5l-2.19 41.18L422 866.14h-41.71v39.14h253.19v-39.14h-41.42z m-22.05 0h-40.52v-78.81h36.32l4.2 78.81z m-11.1-208.46h-29.42v-77.06h25.32l4.1 77.06z m-5.27-99.07H529.5v-66.05h20.63l3.51 66.05z m-69.4 0H460.4l3.52-66.05h20.32v66.05z m0 22.01v77.06h-29.11l4.1-77.06h25.01z m0 99.08v85.62H449.4l4.56-85.62h30.28z m45.25 0h30.59l4.56 85.62h-35.15V679.7z m15.94-275.21l3.52 66.05h-19.46v-66.05h15.94z m-61.19 66.05h-19.15l3.52-66.05h15.63v66.05z m-36.01 316.79h36.01v78.81h-40.21l4.2-78.81zM340.9 358.37c-3.25-12.55-6.84-28.13 5.94-50.72-15.24 10.51-36.64 41.01-42.72 57.75-0.24 0.67-0.44 1.33-0.66 2.01-3.17-5.38-5.53-12.44-5.12-22.89-5.63 10.66-8.91 34.82-7.47 46.41 1.44 11.6 8.45 20.26 15.65 19.36 3.15-0.39 5.81-2.55 7.69-5.82 0.81 1.98 2.02 3.64 3.7 4.84 7.19 5.16 19.77-0.05 28.07-11.63 8.31-11.58-4.79-30.24 19.07-54.11-6.81 2.39-15.79 8.17-24.15 14.8z" fill="#556573" p-id="2555"></path><path d="M369.13 774.53L352.9 469.62h-23.2v-49.79h-28.53v49.79h-23.13v2.21l-16.12 302.71h-26.29v24.68h159.62v-24.68h-26.12z m-13.89 0H329.7v-49.68h22.9l2.64 49.68z m-7-131.42H329.7v-48.58h15.96l2.58 48.58z m-3.33-62.46H329.7v-41.64h13l2.21 41.64z m-43.75 0h-15.03l2.21-41.64h12.81v41.64z m0 13.88v48.58h-18.35l2.59-48.58h15.76z m0 62.46v53.97H279.2l2.87-53.97h19.09z m28.54 0h19.28l2.87 53.97H329.7v-53.97z m10.04-173.5l2.21 41.64H329.7v-41.64h10.04z m-38.58 41.64h-12.07l2.22-41.64h9.85v41.64z m-22.7 199.72h22.7v49.68h-25.35l2.65-49.68zM726.18 358.37c-3.25-12.55-6.84-28.13 5.94-50.72-15.24 10.51-36.64 41.01-42.72 57.75-0.24 0.67-0.44 1.33-0.66 2.01-3.17-5.38-5.53-12.44-5.12-22.89-5.63 10.66-8.91 34.82-7.47 46.41 1.44 11.6 8.45 20.26 15.65 19.36 3.15-0.39 5.81-2.55 7.69-5.82 0.81 1.98 2.02 3.64 3.7 4.84 7.19 5.16 19.77-0.05 28.07-11.63 8.31-11.58-4.79-30.24 19.07-54.11-6.8 2.39-15.78 8.17-24.15 14.8zM754.42 774.53l-16.23-304.92h-23.2v-49.79h-28.53v49.79h-23.13v2.21L647.2 774.53h-26.3v24.68h159.62v-24.68h-26.1z m-13.89 0h-25.54v-49.68h22.9l2.64 49.68z m-7-131.42h-18.54v-48.58h15.96l2.58 48.58z m-3.33-62.46h-15.22v-41.64h13l2.22 41.64z m-43.75 0h-15.03l2.21-41.64h12.81v41.64z m0 13.88v48.58H668.1l2.59-48.58h15.76z m0 62.46v53.97h-21.97l2.87-53.97h19.1z m28.53 0h19.28l2.87 53.97h-22.16v-53.97z m10.05-173.5l2.21 41.64h-12.26v-41.64h10.05z m-38.58 41.64h-12.07l2.22-41.64h9.85v41.64z m-22.7 199.72h22.7v49.68H661.1l2.65-49.68z" fill="#556573" p-id="2556"></path></svg>