<?xml version="1.0" standalone="no"?><!DOCTYPE svg PUBLIC "-//W3C//DTD SVG 1.1//EN" "http://www.w3.org/Graphics/SVG/1.1/DTD/svg11.dtd"><svg t="1681476039111" class="icon" viewBox="0 0 1024 1024" version="1.1" xmlns="http://www.w3.org/2000/svg" p-id="2072" xmlns:xlink="http://www.w3.org/1999/xlink" width="200" height="200"><path d="M506.88-0.046548m72.407734 72.407734l362.038672 362.038672q72.407734 72.407734 0 144.815469l-362.038672 362.038672q-72.407734 72.407734-144.815468 0l-362.038672-362.038672q-72.407734-72.407734 0-144.815469l362.038672-362.038672q72.407734-72.407734 144.815468 0Z" fill="#F5A623" p-id="2073"></path><path d="M603.9552 307.2l327.168 279.7568L603.9552 921.6l-148.5824-153.6c14.3872-284.672 33.28-438.272 56.6272-460.8 23.3472-22.528 54.016-22.528 91.9552 0z" fill="#ED9300" p-id="2074"></path><path d="M649.216 402.688v-6.0928a3.1232 3.1232 0 0 0-0.8192-2.2016 2.2528 2.2528 0 0 0-2.048-0.7168h-2.8672c1.3824-36.352-13.1072-71.0144-38.5024-92.16a82.432 82.432 0 0 0-52.5824-21.0944 6.0416 6.0416 0 0 1-3.6352-1.9968 6.0416 6.0416 0 0 0-1.6384-3.9936 4.4032 4.4032 0 0 0-3.584-1.3824h-15.7696A29.5424 29.5424 0 0 0 502.3744 256a28.8256 28.8256 0 0 0-22.528 11.008c-14.6432 0-69.5296 0-109.7728-1.792-6.3488 0-6.3488 0-9.6256 3.584a27.2896 27.2896 0 0 0 0 20.8384c1.024 1.1776 2.4576 1.792 3.8912 1.792 29.1328-6.656 58.88-9.216 88.576-7.6288 2.048 0 4.4032 3.3792 0 6.0416a488.3456 488.3456 0 0 1-67.2256 29.3888 10.9568 10.9568 0 0 0-6.144 7.168c-0.4096 4.352-0.4096 8.704 0 13.0048 0.1536 1.8432 1.024 3.4816 2.4576 4.4032 1.3824 0.8704 3.072 0.9216 4.4544 0.1024 24.8832-16.896 51.0976-30.8224 78.336-41.728a18.432 18.432 0 0 1 9.6256 0v62.5664c-37.888 1.1776-68.608 36.352-70.2464 80.5376v300.288c0 15.7184 3.072 22.4256 11.9296 22.4256h174.4384c8.8576 0 11.9296-5.632 11.9296-22.4256V447.5392c-1.8432-44.7488-33.1776-80.0768-71.6288-80.7424v-59.392h14.0288a4.4032 4.4032 0 0 0 3.584-1.4336c1.024-1.024 1.5872-2.4576 1.6384-3.9936 0-1.536 2.304-2.9184 3.2768-2.9184 14.7968-0.256 29.2864 4.7616 41.5744 14.336 22.528 17.408 35.4816 47.3088 34.304 78.7456h-2.1504a2.2528 2.2528 0 0 0-2.048 0.6656 3.1744 3.1744 0 0 0-0.8192 2.2528v7.3728a30.464 30.464 0 0 0-14.2848 25.6v78.6944c0 0.8704 0.3072 1.6896 0.8704 2.2528 0.5632 0.512 1.3312 0.8192 2.048 0.6656h50.2272c1.3824 0 2.5088-1.28 2.5088-2.9184V427.5712a29.8496 29.8496 0 0 0-15.616-24.8832h-0.768z" fill="#FFFFFF" p-id="2075"></path></svg>