<?xml version="1.0" standalone="no"?><!DOCTYPE svg PUBLIC "-//W3C//DTD SVG 1.1//EN" "http://www.w3.org/Graphics/SVG/1.1/DTD/svg11.dtd"><svg t="1681470691200" class="icon" viewBox="0 0 1024 1024" version="1.1" xmlns="http://www.w3.org/2000/svg" p-id="2807" xmlns:xlink="http://www.w3.org/1999/xlink" width="200" height="200"><path d="M760.087273 263.912727a80.058182 80.058182 0 0 0-112.872728 0l-329.076363 349.090909c-30.952727 30.952727-59.345455 91.229091-28.16 122.181819s91.229091 2.792727 122.181818-28.16l349.090909-329.076364a80.058182 80.058182 0 0 0-1.163636-114.036364zM821.294545 654.894545l-88.66909-176.407272-8.145455 7.68-75.170909 71.214545 114.501818 144.756364a37.469091 37.469091 0 0 0 57.483636-46.545455zM467.781818 376.087273l71.214546-75.170909 7.68-8.145455-176.407273-88.901818a37.469091 37.469091 0 0 0-46.545455 57.483636z" fill="#F7E579" p-id="2808"></path><path d="M796.392727 449.396364L953.018182 302.545455A162.909091 162.909091 0 1 0 721.454545 71.447273l-147.54909 155.927272-346.763637-174.545454a100.072727 100.072727 0 0 0-124.974545 154.763636l2.094545 1.861818 279.272727 218.763637-100.072727 105.658182c-43.752727-20.48-159.185455-63.301818-232.727273 9.309091a100.072727 100.072727 0 0 0 0 141.498181l52.829091 50.734546c-37.701818 61.905455-57.018182 141.265455-6.283636 191.301818a107.054545 107.054545 0 0 0 77.963636 30.254545 177.570909 177.570909 0 0 0 52.130909-8.610909 279.272727 279.272727 0 0 0 60.974546-27.927272l50.734545 50.734545a100.072727 100.072727 0 0 0 141.498182 0c75.869091-76.101818 48.174545-176.872727 13.730909-235.985454l99.607273-93.09091 220.858182 279.272728 1.861818 2.094545a100.072727 100.072727 0 0 0 154.763636-124.974545zM134.981818 99.141818A53.527273 53.527273 0 0 1 202.472727 93.090909h2.56l334.196364 167.796364-123.112727 132.189091L134.050909 173.614545a53.527273 53.527273 0 0 1 0.930909-74.472727zM130.792727 698.181818l-45.149091-46.545454a53.527273 53.527273 0 0 1 0-75.636364 99.607273 99.607273 0 0 1 73.076364-26.763636 256 256 0 0 1 91.927273 20.712727l-96.116364 101.701818-8.145454 8.610909c-4.421818 4.421818-8.610909 9.076364-13.032728 14.196364z m82.850909 207.127273c-25.6 7.912727-60.741818 12.567273-83.549091-10.24-33.978182-33.978182-11.869091-99.84 23.272728-149.178182 3.723636-5.12 7.447273-10.007273 11.170909-14.661818l3.258182-3.956364c3.723636-4.421818 7.68-8.843636 11.403636-12.567272L305.105455 581.818182 755.432727 104.029091a116.363636 116.363636 0 0 1 165.003637 164.072727L448.930909 714.24l-137.076364 129.861818a231.330909 231.330909 0 0 1-19.083636 16.756364l-6.981818 5.12a246.225455 246.225455 0 0 1-71.912727 38.167273z m233.890909 34.210909a53.527273 53.527273 0 0 1-75.636363 0L325.818182 893.207273c5.818182-4.887273 11.403636-10.007273 16.290909-14.894546l116.363636-109.381818c20.014545 37.236364 46.312727 112.174545-10.705454 169.425455z m477.323637-50.501818a53.527273 53.527273 0 0 1-74.705455 0L628.363636 610.909091l132.887273-125.905455L930.909091 818.967273l1.396364 2.56a53.527273 53.527273 0 0 1-7.447273 67.490909z" fill="#1B1B5C" p-id="2809"></path></svg>